<svg xmlns="http://www.w3.org/2000/svg" width="175" height="43" viewBox="0 0 175 43" fill="none"><path d="M26.6513 24.5942C28.9884 24.5942 30.886 26.4991 30.886 28.8357C30.886 31.1766 28.9842 33.0773 26.6513 33.0773C24.3183 33.0773 22.4165 31.1724 22.4165 28.8357C22.4165 26.4991 24.3141 24.5942 26.6513 24.5942ZM26.6513 22.9009C23.3801 22.9009 20.726 25.5593 20.726 28.8357C20.726 32.1121 23.3801 34.7705 26.6513 34.7705C29.9224 34.7705 32.5766 32.1121 32.5766 28.8357C32.5766 25.5593 29.9267 22.9009 26.6513 22.9009Z" fill="#AC36F6"></path><path d="M24.893 16.6064C30.2647 16.6064 34.6347 20.9834 34.6347 26.3636C34.6347 31.7439 30.2647 36.1209 24.893 36.1209C19.5213 36.1209 15.1513 31.7439 15.1513 26.3636C15.1555 20.9834 19.5213 16.6064 24.893 16.6064ZM24.893 15.2687C18.7733 15.2687 13.8158 20.2384 13.8158 26.3636C13.8158 32.4932 18.7775 37.4586 24.893 37.4586C31.0085 37.4586 35.9702 32.4889 35.9702 26.3636C35.9744 20.2341 31.0127 15.2687 24.893 15.2687Z" fill="#6A63F6"></path><path d="M23.1349 8.62281C31.541 8.62281 38.3792 15.4719 38.3792 23.8915C38.3792 32.3111 31.541 39.1603 23.1349 39.1603C14.7287 39.1603 7.8905 32.3111 7.8905 23.8915C7.8905 15.4719 14.7329 8.62281 23.1349 8.62281ZM23.1349 7.63651C14.1708 7.63651 6.90576 14.9132 6.90576 23.8915C6.90576 32.8699 14.1708 40.1466 23.1349 40.1466C32.0989 40.1466 39.364 32.8699 39.364 23.8915C39.3682 14.9132 32.1031 7.63651 23.1349 7.63651Z" fill="#00BAD1"></path><path d="M21.381 0.634963C32.8217 0.634963 42.1281 9.95621 42.1281 21.4152C42.1281 32.8741 32.8217 42.1954 21.381 42.1954C9.94033 42.1954 0.633949 32.8741 0.633949 21.4152C0.629723 9.96045 9.94033 0.634963 21.381 0.634963ZM21.381 0C9.57264 0 0 9.58793 0 21.4152C0 33.2424 9.57264 42.8303 21.381 42.8303C33.1894 42.8303 42.762 33.2424 42.762 21.4152C42.762 9.58793 33.1894 0 21.381 0Z" fill="#09CEB9"></path><path d="M48.1843 25.0556C48.1843 18.6933 52.7995 14.2274 58.5219 14.2274C61.641 14.2274 64.4388 15.5735 65.9011 17.7832L65.9391 14.6211H69.2145V35.4902H65.9391L65.9011 32.3281C64.443 34.542 61.641 35.8839 58.5219 35.8839C52.7995 35.8839 48.1843 31.418 48.1843 25.0556ZM58.915 32.4847C62.744 32.4847 65.8588 29.839 65.8588 25.0556C65.8588 20.2723 62.7398 17.5885 58.915 17.5885C54.8492 17.5885 51.8105 20.6702 51.8105 25.0556C51.8147 29.403 54.8535 32.4847 58.915 32.4847Z" fill="black"></path><path d="M79.0533 14.6212H81.382V17.9399H79.3703C77.1599 17.9399 76.2513 18.7696 76.2513 21.1401V35.4903H72.6208V21.1824C72.6208 16.6784 74.7509 14.6212 79.0533 14.6212Z" fill="black"></path><path d="M87.1172 25.6906V35.4902H83.4868V6.92538H87.1172V23.3201L94.6147 14.6254H98.9172L90.5913 24.3488L99.5088 35.4945H95.012L87.1172 25.6906Z" fill="black"></path><path d="M97.9789 25.1361C97.9789 18.8923 102.4 14.2274 108.435 14.2274C113.722 14.2274 118.455 17.8255 118.337 25.5298H101.368C101.567 29.6401 104.407 32.6837 108.71 32.6837C111.748 32.6837 114.233 31.1809 115.772 28.6538L118.299 30.5121C116.482 33.3567 113.329 35.8881 108.671 35.8881C102.277 35.8839 97.9789 31.2613 97.9789 25.1361ZM114.787 22.8036C114.115 19.087 111.512 17.3091 108.397 17.3091C104.885 17.3091 102.319 19.6415 101.571 22.8036H114.787Z" fill="black"></path><path d="M120.311 35.4902V32.29C121.929 32.489 123.311 32.5652 124.216 32.5652C126.9 32.5652 128.163 31.6974 128.163 29.9195C128.163 28.6157 127.415 27.6675 125.48 26.4018L124.098 25.4917C121.376 23.7138 120.15 22.0121 120.15 19.7601C120.15 16.4414 122.716 14.3841 126.976 14.3841C127.884 14.3841 129.03 14.4645 130.171 14.6211V17.5462C128.987 17.4277 128.079 17.3896 127.487 17.3896C125.002 17.3896 123.7 18.2193 123.7 19.722C123.7 20.8268 124.491 21.6989 126.422 22.9603L127.804 23.8704C130.644 25.7288 131.87 27.4686 131.87 29.8772C131.87 33.5515 129.11 35.7273 124.372 35.7273C123.349 35.7273 121.849 35.6469 120.311 35.4902Z" fill="black"></path><path d="M135.264 17.9441H132.736V14.6211H135.264V6.91267L138.894 6.87457V14.6211H141.578V17.9399H138.894V35.4902H135.264V17.9441Z" fill="black"></path><path d="M150.398 14.6212H152.727V17.9399H150.715C148.505 17.9399 147.596 18.7696 147.596 21.1401V35.4903H143.966V21.1824C143.966 16.6784 146.096 14.6212 150.398 14.6212Z" fill="black"></path><path d="M153.213 25.098C153.213 18.7738 157.87 14.1512 163.944 14.1512C169.983 14.1512 174.636 18.7738 174.636 25.098C174.636 31.3799 169.979 35.9643 163.944 35.9643C157.87 35.9643 153.213 31.3799 153.213 25.098ZM163.948 32.5271C167.971 32.5271 170.972 29.403 170.972 25.098C170.972 20.7125 167.971 17.5885 163.948 17.5885C159.882 17.5885 156.843 20.7125 156.843 25.098C156.843 29.403 159.882 32.5271 163.948 32.5271Z" fill="black"></path></svg>