<svg width="221" height="221" viewBox="0 0 221 221" fill="none" xmlns="http://www.w3.org/2000/svg">
<rect x="0.399414" y="0.574829" width="220" height="220" fill="#FCFDFF"/>
<g clip-path="url(#clip0_374_54)">
<path d="M45.6006 45.776H78V78.1754H45.6006V45.776Z" fill="#E33E84"/>
<path d="M78 45.776H110.399V78.1754H78V45.776Z" fill="#A62A99"/>
<path d="M110.399 45.776H142.799V78.1754H110.399V45.776Z" fill="#6816B0"/>
<path d="M142.799 45.776H175.198V78.1754H142.799V45.776Z" fill="#4E13A6"/>
<path d="M45.6006 78.1757H78V110.575H45.6006V78.1757Z" fill="#4211A1"/>
<path d="M78 78.1757H110.399V110.575H78V78.1757Z" fill="#350F9C"/>
<path d="M110.399 78.1757H142.799V110.575H110.399V78.1757Z" fill="#3E37C1"/>
<path d="M142.799 78.1757H175.198V110.575H142.799V78.1757Z" fill="#5C93E8"/>
<path d="M45.6006 110.575H78V142.974H45.6006V110.575Z" fill="#70C6EC"/>
<path d="M78 110.575H110.399V142.974H78V110.575Z" fill="#70D6EC"/>
<path d="M110.399 110.575H142.799V142.974H110.399V110.575Z" fill="#A3F1D5"/>
<path d="M142.799 110.575H175.198V142.974H142.799V110.575Z" fill="#CBFBBB"/>
<path d="M45.6006 142.974H78V175.374H45.6006V142.974Z" fill="#F6FBBB"/>
<path d="M78 142.974H110.399V175.374H78V142.974Z" fill="#FFEC42"/>
<path d="M110.399 142.974H142.799V175.374H110.399V142.974Z" fill="#FBAF8E"/>
<path d="M142.799 142.974H175.198V175.374H142.799V142.974Z" fill="#FF7979"/>
</g>
<defs>
<clipPath id="clip0_374_54">
<rect x="45.6006" y="45.776" width="129.598" height="129.598" rx="10" fill="white"/>
</clipPath>
</defs>
</svg>
