<svg width="88" height="24" viewBox="0 0 88 24" fill="none" xmlns="http://www.w3.org/2000/svg">
<path d="M52.8933 18.079C51.7966 18.079 50.8171 17.8334 49.9563 17.3451C49.0941 16.8553 48.4181 16.16 47.9297 15.2592C47.44 14.3583 47.1958 13.2809 47.1958 12.0283V3.75928H50.2211L50.2253 11.98C50.2253 13.234 50.5384 14.1583 51.1648 14.7557C51.7911 15.353 52.6629 15.651 53.779 15.651C55.0123 15.651 56.007 15.2357 56.7602 14.4025C57.5134 13.5706 57.8914 12.7967 57.8914 11.2309L57.8873 3.75928H60.9126V17.8141H58.3246V15.6399H57.4762C57.2017 16.2276 56.7119 16.7808 56.007 17.2995C55.302 17.8183 54.2632 18.0776 52.8933 18.0776V18.079Z" fill="white"/>
<path d="M63.2827 17.8156V3.76074H65.8707V5.73488H66.7192C66.9537 5.12787 67.3303 4.47673 67.8504 4.19254C68.3691 3.90835 69.0106 3.76626 69.7749 3.76626H71.5076V6.7047H69.6576C68.6781 6.7047 67.8752 6.97371 67.2489 7.51312C66.6226 8.05252 66.3094 8.87886 66.3094 9.99492V17.817H63.2841L63.2827 17.8156Z" fill="white"/>
<path d="M79.5794 18.079C78.4826 18.079 77.5031 17.8334 76.6423 17.3451C75.7801 16.8553 75.1041 16.16 74.6158 15.2592C74.126 14.3583 73.8818 13.2809 73.8818 12.0283V3.75928H76.9072L76.9113 11.98C76.9113 13.234 77.2245 14.1583 77.8508 14.7557C78.4771 15.353 79.349 15.651 80.465 15.651C81.6984 15.651 82.693 15.2357 83.4462 14.4025C84.1995 13.5706 84.5775 12.7967 84.5775 11.2309L84.5733 3.75928H87.5987V17.8141H85.0107V15.6399H84.1622C83.8877 16.2276 83.398 16.7808 82.693 17.2995C81.9881 17.8183 80.9493 18.0776 79.5794 18.0776V18.079Z" fill="white"/>
<path d="M42.7344 3.78835V5.73489H42.1398C42.0487 5.61349 41.9591 5.50037 41.8584 5.38862C40.8265 4.15807 39.2538 3.6228 37.6839 3.6228C34.9523 3.6228 32.494 5.35414 31.5076 7.89113C30.3971 10.7509 30.9861 14.6054 33.4762 16.574C34.4129 17.3148 35.707 17.8073 36.892 17.9508C38.7171 18.1715 40.6402 17.3659 41.4486 15.64H42.2943V17.2376C42.2943 19.8684 40.9423 21.1872 38.237 21.1872C37.1872 21.1872 36.3305 20.9692 35.667 20.5361C35.0062 20.1029 34.5826 19.4931 34.3978 18.6999H31.727C31.8539 20.2643 32.5161 21.4755 33.7135 22.3309C34.911 23.1862 36.0988 23.6166 38.0149 23.6166C40.4816 23.6166 42.304 23.0662 43.4821 21.9722C44.5664 20.9651 45.1527 19.5759 45.2369 17.8142L45.2507 3.78697H42.7344V3.78835ZM41.1644 14.1888C40.7478 14.6592 40.2622 15.0013 39.7008 15.2096C39.2414 15.3835 38.7378 15.4717 38.1805 15.4717C36.9486 15.4717 35.9525 15.0386 35.1965 14.1736C34.6999 13.6066 34.3674 12.9251 34.2005 12.1332C34.1094 11.7207 34.0667 11.2779 34.0667 10.8047C34.0667 10.3315 34.1108 9.9025 34.1977 9.49554C34.366 8.69678 34.6971 8.00839 35.1979 7.43863C35.718 6.84129 36.3526 6.45226 37.0975 6.2674C37.4369 6.18049 37.7956 6.14048 38.1819 6.14048C39.3021 6.14048 40.225 6.49916 40.9506 7.22066C41.0251 7.29516 41.0955 7.37104 41.1658 7.45243C41.4542 7.7849 41.6859 8.15324 41.8639 8.56021C42.1522 9.22515 42.2971 9.99356 42.2971 10.8627C42.2971 12.2257 41.9218 13.3321 41.1658 14.1915L41.1644 14.1888Z" fill="white"/>
<path d="M23.36 11.8518L19.3303 23.9987H13.3072L15.2524 17.7618H11.8394L13.8011 11.8518H23.36Z" fill="white"/>
<path d="M11.8379 0C5.31126 0 0 5.31126 0 11.8379C0 15.6758 1.83618 19.0916 4.67529 21.2561L3.81859 24H9.76996L11.8393 17.7631C8.65942 17.7631 5.90998 14.9998 5.90998 11.8379C5.90998 8.67598 8.64011 5.91136 11.8365 5.91136C13.91 5.91136 15.7351 6.98189 16.7932 8.6001H23.2192C21.8093 3.64063 17.2388 0.0013809 11.8351 0.0013809L11.8379 0Z" fill="white"/>
</svg>
