<?xml version="1.0" encoding="iso-8859-1"?>
<!DOCTYPE svg PUBLIC "-//W3C//DTD SVG 1.0//EN" "http://www.w3.org/TR/2001/REC-SVG-20010904/DTD/svg10.dtd">
<!-- Creator: CorelDRAW -->
<svg xmlns="http://www.w3.org/2000/svg" xmlns:odm="http://product.corel.com/CGS/11/cddns/" xmlns:corel-charset="http://product.corel.com/CGS/11/cddns/" xml:space="preserve" width="2.16535in" height="1.37795in" style="shape-rendering:geometricPrecision; text-rendering:geometricPrecision; image-rendering:optimizeQuality; fill-rule:evenodd"
     viewBox="0 0 2165.35 1377.95">
 <defs>
  <style type="text/css">
   <![CDATA[
    .str0 {stroke:#1F1A17;stroke-width:13}
    .str2 {stroke:#1F1A17;stroke-width:26}
    .str1 {stroke:#1F1A17;stroke-width:39}
    .fil1 {fill:none}
    .fil0 {fill:#1F1A17}
   ]]>
  </style>
 </defs>
 <g id="Ebene_x0020_1">
  <g>
   <path class="fil0" d="M1170.68 1269.98l0 -18 -12 0 0 18 -20 0 25 -56 -12 0 -25 54 0 13 32 0 0 19 12 0 0 -19 11 0 0 -11 -11 0z"/>
   <path class="fil0" d="M1238.68 1289.98c-8,0 -16,-4 -16,-14 0,-9 8,-13 16,-18 9,5 17,9 17,18 0,10 -9,14 -17,14l0 0zm0 -77c-12,0 -25,5 -25,19 0,9 7,15 15,20 -11,5 -18,12 -18,25 0,18 13,24 28,24 16,0 29,-6 29,-24 0,-13 -7,-20 -18,-25 7,-5 15,-11 15,-20 0,-14 -14,-19 -26,-19l0 0zm0 11c6,0 13,1 13,9 0,6 -7,11 -13,13 -5,-2 -13,-7 -13,-13 0,-8 7,-9 13,-9l0 0z"/>
   <path class="fil0" d="M1340.68 1269.98l0 -18 -12 0 0 18 -21 0 26 -56 -12 0 -25 54 0 13 32 0 0 19 12 0 0 -19 11 0 0 -11 -11 0z"/>
   <path class="fil0" d="M1407.68 1227.98l0 72 12 0 0 -86 -13 0 -21 18 0 15 22 -19z"/>
   <path class="fil0" d="M1493.68 1212.98c-12,0 -21,1 -25,13 -3,9 -4,20 -4,30 0,10 1,32 9,40 4,4 13,5 20,5 7,0 16,-1 20,-5 8,-8 9,-30 9,-40 0,-10 -1,-21 -4,-30 -4,-12 -14,-13 -25,-13l0 0zm0 11c9,0 14,0 15,9 1,7 2,17 2,24 0,6 -1,25 -4,30 -2,3 -9,3 -13,3 -4,0 -11,0 -13,-3 -3,-5 -4,-24 -4,-30 0,-7 1,-17 2,-24 1,-9 6,-9 15,-9l0 0z"/>
   <path class="fil0" d="M1578.68 1212.98c-12,0 -21,1 -25,13 -3,9 -4,20 -4,30 0,10 1,32 9,40 4,4 13,5 20,5 7,0 16,-1 20,-5 8,-8 9,-30 9,-40 0,-10 -1,-21 -4,-30 -4,-12 -14,-13 -25,-13l0 0zm0 11c9,0 14,0 15,9 1,7 1,17 1,24 0,6 0,25 -3,30 -2,3 -9,3 -13,3 -4,0 -11,0 -13,-3 -3,-5 -4,-24 -4,-30 0,-7 1,-17 2,-24 1,-9 5,-9 15,-9l0 0z"/>
   <path class="fil0" d="M578.677 1224.98c0,3 -2,6 -4,8l-5 5c-12,14 -20,29 -20,48l0 14 12 0 0 -14c0,-20 8,-30 21,-45 2,-3 7,-9 9,-12 2,-5 2,-9 2,-13l0 -2 -57 0 0 11 42 0z"/>
   <path class="fil0" d="M649.677 1289.98c-8,0 -16,-4 -16,-14 0,-9 8,-13 16,-18 8,5 17,9 17,18 0,10 -9,14 -17,14l0 0zm0 -77c-12,0 -25,5 -25,19 0,9 7,15 14,20 -10,5 -18,12 -18,25 0,18 13,24 29,24 16,0 29,-6 29,-24 0,-13 -8,-20 -18,-25 7,-5 14,-11 14,-20 0,-14 -13,-19 -25,-19l0 0zm0 11c6,0 13,1 13,9 0,6 -8,11 -13,13 -5,-2 -13,-7 -13,-13 0,-8 7,-9 13,-9l0 0z"/>
   <path class="fil0" d="M758.677 1213.98l-52 0 0 11 37 0 -22 23 0 9 9 0c10,0 19,4 19,16 0,12 -10,17 -21,17 -8,0 -15,-2 -22,-6l0 12c7,3 15,5 22,5 18,0 34,-9 34,-28 0,-15 -11,-25 -25,-25l21 -22 0 -12z"/>
   <path class="fil0" d="M818.677 1227.98l0 72 12 0 0 -86 -13 0 -21 18 0 15 22 -19z"/>
   <path class="fil0" d="M909.677 1213.98l-22 25c-8,10 -12,20 -12,33 0,18 11,29 29,29 16,0 29,-11 29,-28 0,-15 -11,-28 -27,-28 -4,0 -7,0 -11,2l0 0 6 -8c7,-8 15,-17 23,-25l-15 0zm-5 42c9,0 16,7 16,17 0,10 -6,17 -16,17 -10,0 -17,-7 -17,-17 0,-10 7,-17 17,-17l0 0z"/>
   <path class="fil0" d="M987.677 1227.98l0 72 13 0 0 -86 -13 0 -21 18 0 15 21 -19z"/>
   <path class="fil0" d="M393.677 1298.98c15,-16 34,-36 34,-57 0,-18 -11,-31 -29,-31 -17,0 -29,12 -29,29 0,16 11,28 27,28 3,0 7,-1 10,-2l0 0 0 0c-8,12 -18,23 -29,33l16 0zm5 -76c10,0 17,7 17,17 0,10 -7,17 -17,17 -10,0 -17,-7 -17,-17 0,-11 6,-17 17,-17l0 0z"/>
   <path class="fil1 str0" d="M448.677 1266.98l0 -1069m26 1069l0 -1069"/>
   <path class="fil1 str1" d="M513.677 1197.98l0 -1000"/>
   <path class="fil1 str2" d="M558.677 1197.98l0 -1000"/>
   <path class="fil1 str0" d="M617.677 1197.98l0 -1000m39 1000l0 -1000m26 1000l0 -1000m65 1000l0 -1000"/>
   <path class="fil1 str2" d="M792.677 1197.98l0 -1000"/>
   <path class="fil1 str0" d="M838.677 1197.98l0 -1000m65 1000l0 -1000m26 1000l0 -1000"/>
   <path class="fil1 str2" d="M974.677 1197.98l0 -1000"/>
   <path class="fil1 str0" d="M1020.68 1197.98l0 -1000m26 1069l0 -1069m26 1069l0 -1069m26 1000l0 -1000"/>
   <path class="fil1 str1" d="M1137.68 1197.98l0 -1000"/>
   <path class="fil1 str0" d="M1189.68 1197.98l0 -1000m39 1000l0 -1000m52 1000l0 -1000"/>
   <path class="fil1 str1" d="M1319.68 1197.98l0 -1000"/>
   <path class="fil1 str2" d="M1377.68 1197.98l0 -1000m52 1000l0 -1000"/>
   <path class="fil1 str1" d="M1475.68 1197.98l0 -1000"/>
   <path class="fil1 str0" d="M1527.68 1197.98l0 -1000"/>
   <path class="fil1 str1" d="M1566.68 1197.98l0 -1000"/>
   <path class="fil1 str0" d="M1618.68 1197.98l0 -1000m26 1069l0 -1069m26 1069l0 -1069"/>
   <path class="fil0" d="M139.677 96.9764l13 0 0 -12 -39 0 0 12 13 0 0 61 -15 0 0 12 43 0 0 -12 -15 0 0 -61z"/>
   <path class="fil0" d="M223.677 170.976c14,0 26,-9 26,-24 0,-14 -9,-20 -21,-26l-7 -3c-5,-2 -10,-6 -10,-12 0,-8 6,-10 13,-10 7,0 12,3 12,10l13 0 0 -1c0,-13 -13,-21 -25,-21 -14,0 -26,9 -26,23 0,13 10,18 19,23 10,5 20,8 20,17 0,9 -7,12 -14,12 -8,0 -14,-5 -14,-13l-13 0 0 3c0,14 14,22 27,22z"/>
   <path class="fil0" d="M296.677 96.9764l16 0c8,0 18,1 18,12 0,10 -9,11 -17,11l-17 0 0 -23zm0 33l17 0c10,0 19,3 19,15 0,11 -9,13 -18,13l-18 0 0 -28zm20 40c20,0 28,-13 28,-25 0,-9 -4,-18 -12,-19l0 -1c6,-2 10,-9 10,-16 0,-18 -15,-24 -31,-24l-27 0 0 85 32 0z"/>
   <path class="fil0" d="M419.677 146.976l0 0 -29 -62 -15 0 0 85 11 0 0 -64 1 0 30 64 14 0 0 -85 -12 0 0 62z"/>
   <path class="fil0" d="M578.677 169.976c15,-17 35,-38 35,-61 0,-19 -11,-32 -30,-32 -19,0 -31,12 -31,31 0,16 12,29 28,29 4,0 8,-1 11,-2l0 0 0 0c-8,13 -19,24 -31,35l18 0zm5 -81c11,0 17,7 17,18 0,11 -7,18 -17,18 -11,0 -18,-7 -18,-18 0,-11 6,-18 18,-18z"/>
   <path class="fil0" d="M688.677 90.9764c-1,3 -3,6 -5,8l-5 5c-12,15 -22,31 -22,51l0 15 13 0 0 -15c0,-21 9,-32 22,-48 3,-3 8,-9 10,-13 2,-4 2,-8 2,-14l0 -1 -60 0 0 12 45 0z"/>
   <path class="fil0" d="M763.677 158.976c-9,0 -18,-4 -18,-14 0,-10 9,-15 18,-20 9,5 17,10 17,20 0,10 -9,14 -17,14zm0 -82c-13,0 -27,6 -27,20 0,11 7,17 15,22 -11,5 -19,13 -19,27 0,18 14,25 31,25 16,0 30,-7 30,-25 0,-14 -8,-22 -19,-27 8,-5 16,-11 16,-22 0,-14 -15,-20 -27,-20zm0 12c6,0 14,2 14,9 0,8 -9,12 -14,15 -6,-3 -14,-7 -14,-15 0,-7 8,-9 14,-9z"/>
   <path class="fil0" d="M821.677 133.976l63 0 0 -13 -63 0 0 13z"/>
   <path class="fil0" d="M968.677 78.9764l-55 0 0 12 39 0 -23 23 0 10 10 0c11,0 20,5 20,17 0,13 -11,18 -22,18 -9,0 -17,-2 -24,-6l0 13c8,3 15,5 24,5 18,0 35,-9 35,-30 0,-16 -11,-26 -27,-27l23 -22 0 -13z"/>
   <path class="fil0" d="M1001.68 133.976l63 0 0 -13 -63 0 0 13z"/>
   <path class="fil0" d="M1121.68 92.9764l0 77 13 0 0 -91 -14 0 -22 18 0 16 23 -20z"/>
   <path class="fil0" d="M1218.68 78.9764l-23 26c-9,10 -13,21 -13,35 0,19 11,31 31,31 17,0 30,-12 30,-30 0,-16 -11,-30 -28,-30 -4,0 -8,1 -11,3l0 -1 6 -7c7,-9 15,-19 24,-27l-16 0zm-6 44c11,0 18,7 18,18 0,11 -7,18 -17,18 -11,0 -18,-7 -18,-18 0,-10 7,-18 17,-18z"/>
   <path class="fil0" d="M1271.68 133.976l63 0 0 -13 -63 0 0 13z"/>
   <path class="fil0" d="M1391.68 92.9764l0 77 13 0 0 -91 -14 0 -22 18 0 16 23 -20z"/>
   <path class="fil0" d="M1501.68 137.976l0 -19 -13 0 0 19 -22 0 27 -59 -13 0 -27 57 0 14 35 0 0 20 13 0 0 -20 11 0 0 -12 -11 0z"/>
   <path class="fil0" d="M1573.68 158.976c-9,0 -18,-4 -18,-14 0,-10 9,-15 18,-20 9,5 17,10 17,20 0,10 -9,14 -17,14zm0 -82c-13,0 -27,6 -27,20 0,11 7,17 15,22 -11,5 -19,13 -19,27 0,18 14,25 31,25 16,0 30,-7 30,-25 0,-14 -8,-22 -19,-27 8,-5 16,-11 16,-22 0,-14 -15,-20 -27,-20zm0 12c6,0 14,2 14,9 0,8 -9,12 -14,15 -6,-3 -14,-7 -14,-15 0,-7 8,-9 14,-9z"/>
   <path class="fil0" d="M1681.68 137.976l0 -19 -13 0 0 19 -22 0 27 -59 -13 0 -27 57 0 14 35 0 0 20 13 0 0 -20 11 0 0 -12 -11 0z"/>
   <path class="fil0" d="M1751.68 92.9764l0 77 13 0 0 -91 -14 0 -22 18 0 16 23 -20z"/>
   <path class="fil0" d="M1843.68 76.9764c-13,0 -22,2 -27,14 -3,10 -4,21 -4,32 0,11 1,34 9,42 5,5 14,6 22,6 7,0 17,-1 21,-6 8,-8 9,-31 9,-42 0,-11 -1,-22 -4,-32 -4,-12 -14,-14 -26,-14zm0 12c10,0 14,0 16,10 1,7 1,18 1,25 0,7 0,27 -4,32 -2,3 -9,3 -13,3 -5,0 -12,0 -14,-3 -4,-5 -4,-25 -4,-32 0,-7 0,-18 2,-25 1,-10 6,-10 16,-10z"/>
   <path class="fil0" d="M1901.68 133.976l63 0 0 -13 -63 0 0 13z"/>
   <path class="fil0" d="M2023.68 76.9764c-13,0 -22,2 -27,14 -3,10 -4,21 -4,32 0,11 1,34 9,42 5,5 14,6 22,6 7,0 17,-1 21,-6 8,-8 9,-31 9,-42 0,-11 -1,-22 -4,-32 -4,-12 -14,-14 -26,-14zm0 12c10,0 14,0 16,10 1,7 1,18 1,25 0,7 0,27 -4,32 -2,3 -9,3 -13,3 -5,0 -12,0 -14,-3 -4,-5 -4,-25 -4,-32 0,-7 0,-18 2,-25 1,-10 6,-10 16,-10z"/>
  </g>
 </g>
</svg>
