<?xml version="1.0" encoding="UTF-8"?>
<svg width="80px" height="80px" viewBox="0 0 80 80" version="1.1" xmlns="http://www.w3.org/2000/svg" xmlns:xlink="http://www.w3.org/1999/xlink">
    <!-- Generator: Sketch 51.3 (57544) - http://www.bohemiancoding.com/sketch -->
    <title>Anti—Apex Logo</title>
    <g id="aa_1" stroke="none" stroke-width="1" fill="none" fill-rule="evenodd">
        <g id="Group-2-Copy" stroke="#000000">
            <rect id="Rectangle" x="0.5" y="0.5" width="79" height="79"></rect>
            <circle id="Oval" fill="#000000" cx="40" cy="40" r="19.2333333"></circle>
            <path d="M79.5,29.2071068 L29.2071068,79.5 L79.5,79.5 L79.5,29.2071068 Z" id="Rectangle" transform="translate(54.000000, 54.000000) rotate(-360.000000) translate(-54.000000, -54.000000) "></path>
        </g>
    </g>
    <g id="aa_2" stroke="none" stroke-width="1" fill="none" fill-rule="evenodd">
        <g id="Group-2" stroke="#000000">
            <rect id="Rectangle" x="0.5" y="0.5" width="79" height="79"></rect>
            <circle id="Oval" cx="40" cy="40" r="19.2333333"></circle>
            <path d="M79.5,29.2071068 L29.2071068,79.5 L79.5,79.5 L79.5,29.2071068 Z" id="Rectangle" transform="translate(54.000000, 54.000000) rotate(-360.000000) translate(-54.000000, -54.000000) "></path>
        </g>
    </g>
    <g id="aa_3" stroke="none" stroke-width="1" fill="none" fill-rule="evenodd">
        <path d="M0.5,0.5 L0.5,79.5 L79.5,79.5 L79.5,0.5 L0.5,0.5 Z M40,60.2333333 C28.8254386,60.2333333 19.7666667,51.1745614 19.7666667,40 C19.7666667,28.8254386 28.8254386,19.7666667 40,19.7666667 C51.1745614,19.7666667 60.2333333,28.8254386 60.2333333,40 C60.2333333,51.1745614 51.1745614,60.2333333 40,60.2333333 Z M79.5,28.7928932 L79.5,79.5 L28.7928932,79.5 L79.5,28.7928932 Z" id="Combined-Shape" stroke="#000000" fill="#000000"></path>
    </g>
    <g id="aa_4" stroke="none" stroke-width="1" fill="none" fill-rule="evenodd">
        <g id="Group-2-Copy-2" stroke="#000000">
            <rect id="Rectangle" x="0.5" y="0.5" width="79" height="79"></rect>
            <circle id="Oval" fill="#000000" cx="40" cy="40" r="19.2333333"></circle>
            <path d="M79.5,29.2071068 L29.2071068,79.5 L79.5,79.5 L79.5,29.2071068 Z" id="Rectangle" fill="#000000" transform="translate(54.000000, 54.000000) rotate(-360.000000) translate(-54.000000, -54.000000) "></path>
        </g>
    </g>
    <style>
    	@keyframes aa_1 {
    	  25%, 100%  { opacity: 0 }
    	  0%, 24.99% { opacity: 1 }
    	}

    	#aa_1 {
    	  -webkit-animation: aa_1 8s infinite linear;
    	  animation:         aa_1 8s infinite linear;
    	}

    	@keyframes aa_2 {
    	  0%, 24.99%, 50%  { opacity: 0 }
    	  25%, 49.99% { opacity: 1 }
    	}

    	#aa_2{
    	  opacity: 0;
    	  -webkit-animation: aa_2 8s infinite linear;
    	  animation:         aa_2 8s infinite linear;
    	}

    	@keyframes aa_3 {
    	  0%, 49.99%, 75%, 100%  { opacity: 0 }
    	  50%, 74.99% { opacity: 1 }
    	}

    	#aa_3 {
    	  -webkit-animation: aa_3 8s infinite linear;
    	  animation:         aa_3 8s infinite linear;
    	}

    	@keyframes aa_4 {
    	  0%, 74.99%, 100% { opacity: 0 }
    	  75%, 99.99% { opacity: 1 }
    	}

    	#aa_4 {
    	  -webkit-animation: aa_4 8s infinite linear;
    	  animation:         aa_4 8s infinite linear;
    	}
    </style>
</svg>