<?xml version="1.0" encoding="UTF-8"?>
<svg width="222px" height="112px" viewBox="0 0 222 112" version="1.1" xmlns="http://www.w3.org/2000/svg" xmlns:xlink="http://www.w3.org/1999/xlink">
    <!-- Generator: Sketch 55 (78076) - https://sketchapp.com -->
    <title>Group</title>
    <desc>Created with Sketch.</desc>
    <g id="Page-1" stroke="none" stroke-width="1" fill="none" fill-rule="evenodd">
        <g id="Group">
            <path d="M222,0 L222,112 L56.265,112 C25.1906986,112 0,86.927946 0,56 C0,25.072054 25.1906986,0 56.265,0 L222,0 Z" id="Combined-Shape-Copy" fill="#FFEC82"></path>
            <path d="M55.9760298,35 L58.0760298,33.9 L62.1760298,24.2 L60.2760298,22 L63.2160298,22 L68.1760298,33.8 L70.1760298,35 L64.5760298,35 L66.2760298,34 L64.9760298,30.9 L60.1560298,30.9 L58.8760298,34 L60.6760298,35 L55.9760298,35 Z M62.5760298,25.1 L60.4560298,30.2 L64.6960298,30.2 L62.5760298,25.1 Z M71.0669389,28.9 C71.0669389,27.14 72.4669389,25.7 74.5669389,25.7 C75.9669389,25.7 76.6669389,26.3 77.4669389,26.3 C77.9669389,26.3 77.7669389,26.04 77.7669389,25.78 C77.7669389,25.36 78.0469389,25 78.5269389,25 C79.0869389,25 79.3669389,25.4 79.3669389,25.8 C79.3669389,26.34 79.0669389,26.8 78.1669389,26.8 C77.6669389,26.8 77.1669389,26.7 77.1669389,26.7 C77.1669389,26.7 78.0669389,27.5 78.0669389,28.9 C78.0669389,30.66 76.6669389,32.1 74.5669389,32.1 C74.4069389,32.1 74.2469389,32.1 74.1069389,32.08 C73.5069389,32.08 72.5669389,32.2 72.5669389,32.9 C72.5669389,33.4 73.0669389,33.5 73.3669389,33.5 L76.6669389,33.5 C78.6669389,33.5 79.4669389,34.3 79.4669389,35.8 C79.4669389,37.3 77.7669389,39.5 74.3669389,39.5 C71.5669389,39.5 70.3669389,38.1 70.3669389,36.9 C70.3669389,35.5 71.6469389,35.08 72.3269389,34.96 C71.7869389,34.8 71.2669389,34.28 71.2669389,33.6 C71.2669389,32.4 72.3669389,32 73.2869389,31.9 C71.9269389,31.46 71.0669389,30.28 71.0669389,28.9 Z M77.7669389,35 L72.7469389,35 C72.7069389,35.02 71.7669389,35.32 71.7669389,36.3 C71.7669389,37.3 72.6669389,38.2 74.8669389,38.2 C77.7669389,38.2 78.8669389,36.8 78.8669389,35.9 C78.8669389,35.3 78.4669389,35 77.7669389,35 Z M72.7669389,28.9 C72.7669389,30.6 73.4669389,31.6 74.5669389,31.6 C75.6669389,31.6 76.3669389,30.6 76.3669389,28.9 C76.3669389,27.2 75.6669389,26.2 74.5669389,26.2 C73.4669389,26.2 72.7669389,27.2 72.7669389,28.9 Z M83.077848,30.26 L85.957848,29.08 L85.957848,28.6 C85.957848,26.82 85.557848,26.3 84.457848,26.3 C83.357848,26.3 82.837848,26.82 82.837848,28.04 C82.837848,28.66 82.497848,28.98 82.017848,28.98 C81.537848,28.98 81.197848,28.62 81.197848,28.04 C81.197848,26.8 83.457848,25.7 84.657848,25.7 C86.837848,25.7 87.557848,26.9 87.557848,28.6 L87.557848,34 L89.357848,33.3 C89.357848,33.3 87.757848,35.3 87.057848,35.3 C86.357848,35.3 85.957848,34.88 85.957848,33.82 L84.417848,34.84 C83.977848,35.16 83.577848,35.3 82.977848,35.3 C81.757848,35.3 80.857848,34.38 80.857848,33 C80.857848,31.7 81.737848,30.82 83.077848,30.26 Z M85.957848,33.18 L85.957848,29.66 L84.417848,30.3 C82.937848,30.92 82.497848,31.7 82.497848,32.7 C82.497848,33.5 82.957848,34.16 83.877848,34.16 C84.377848,34.16 85.137848,33.84 85.957848,33.18 Z M89.8487571,26.86 L93.0487571,25.7 L93.0487571,34.1 L94.6487571,35 L89.8487571,35 L91.4487571,34.1 L91.4487571,27.24 L89.8487571,26.86 Z M90.9487571,22.8 C90.9487571,22.2 91.4487571,21.7 92.0487571,21.7 C92.6487571,21.7 93.1487571,22.2 93.1487571,22.8 C93.1487571,23.4 92.6487571,23.9 92.0487571,23.9 C91.4487571,23.9 90.9487571,23.4 90.9487571,22.8 Z M100.939666,35 L102.539666,34.1 L102.539666,29.24 C102.539666,27.6 102.219666,26.9 100.979666,26.9 C100.139666,26.9 99.2396662,27.42 98.6396662,28.16 L98.6396662,34.1 L100.239666,35 L95.4396662,35 L97.0396662,34.1 L97.0396662,27.24 L95.4396662,26.86 L98.6396662,25.7 L98.6396662,27.56 C99.3396662,26.8 100.399666,25.7 101.679666,25.7 C103.599666,25.7 104.139666,27 104.139666,28.98 L104.139666,34.1 L105.739666,35 L100.939666,35 Z M109.830575,35.3 C108.330575,35.3 107.630575,34.6 107.630575,34.6 L106.830575,35.3 L106.830575,31.3 C107.630575,33.5 108.330575,34.7 109.830575,34.7 C110.930575,34.7 111.530575,34 111.530575,33.2 C111.530575,32.2 110.970575,31.86 110.230575,31.5 L108.830575,30.84 C107.930575,30.44 106.730575,29.9 106.730575,28.3 C106.730575,26.84 107.930575,25.7 109.730575,25.7 C110.930575,25.7 111.630575,26.3 111.630575,26.3 L112.530575,25.7 L112.530575,29.2 L111.330575,26.9 C111.330575,26.9 110.830575,26.3 109.730575,26.3 C108.730575,26.3 108.030575,26.9 108.030575,27.7 C108.030575,28.6 108.650575,28.84 109.630575,29.3 L111.030575,29.96 C112.550575,30.68 113.030575,31.4 113.030575,32.6 C113.030575,34.2 111.630575,35.3 109.830575,35.3 Z M114.021484,26.7 L117.221484,23.7 L117.221484,26 L119.321484,26 L119.321484,26.7 L117.221484,26.7 L117.221484,33.1 C117.221484,33.9 117.621484,34.1 118.021484,34.1 C118.721484,34.1 119.521484,33.3 119.521484,33.3 C119.521484,33.3 118.421484,35.3 117.221484,35.3 C116.221484,35.3 115.621484,34.7 115.621484,33.4 L115.621484,26.7 L114.021484,26.7 Z M128.103303,22 L136.903303,31.6 L136.903303,23.1 L134.703303,22 L139.803303,22 L137.803303,23.1 L137.803303,35.3 L128.503303,25.16 L128.503303,33.9 L130.703303,35 L125.603303,35 L127.603303,33.9 L127.603303,24.18 L125.603303,22 L128.103303,22 Z M143.214212,30.26 L146.094212,29.08 L146.094212,28.6 C146.094212,26.82 145.694212,26.3 144.594212,26.3 C143.494212,26.3 142.974212,26.82 142.974212,28.04 C142.974212,28.66 142.634212,28.98 142.154212,28.98 C141.674212,28.98 141.334212,28.62 141.334212,28.04 C141.334212,26.8 143.594212,25.7 144.794212,25.7 C146.974212,25.7 147.694212,26.9 147.694212,28.6 L147.694212,34 L149.494212,33.3 C149.494212,33.3 147.894212,35.3 147.194212,35.3 C146.494212,35.3 146.094212,34.88 146.094212,33.82 L144.554212,34.84 C144.114212,35.16 143.714212,35.3 143.114212,35.3 C141.894212,35.3 140.994212,34.38 140.994212,33 C140.994212,31.7 141.874212,30.82 143.214212,30.26 Z M146.094212,33.18 L146.094212,29.66 L144.554212,30.3 C143.074212,30.92 142.634212,31.7 142.634212,32.7 C142.634212,33.5 143.094212,34.16 144.014212,34.16 C144.514212,34.16 145.274212,33.84 146.094212,33.18 Z M149.685121,26.7 L152.885121,23.7 L152.885121,26 L154.985121,26 L154.985121,26.7 L152.885121,26.7 L152.885121,33.1 C152.885121,33.9 153.285121,34.1 153.685121,34.1 C154.385121,34.1 155.185121,33.3 155.185121,33.3 C155.185121,33.3 154.085121,35.3 152.885121,35.3 C151.885121,35.3 151.285121,34.7 151.285121,33.4 L151.285121,26.7 L149.685121,26.7 Z M157.17603,27.24 L155.57603,26.86 L158.77603,25.7 L158.77603,31.76 C158.77603,33.4 159.09603,34.1 160.33603,34.1 C161.17603,34.1 162.17603,33.58 162.77603,32.84 L162.77603,27.24 L161.17603,26.86 L164.37603,25.7 L164.37603,33.76 L165.97603,34.14 L162.77603,35.3 L162.77603,33.44 C162.07603,34.2 160.91603,35.3 159.63603,35.3 C157.71603,35.3 157.17603,34 157.17603,32.02 L157.17603,27.24 Z M168.266939,27.24 L166.666939,26.86 L169.866939,25.7 L169.866939,27.8 L170.666939,26.92 C171.566939,25.94 172.106939,25.7 172.666939,25.7 C173.366939,25.7 173.966939,26.08 173.966939,26.84 C173.966939,27.42 173.566939,27.8 173.086939,27.8 C172.166939,27.8 172.366939,26.9 171.666939,26.9 C171.266939,26.9 170.766939,27.4 169.866939,28.5 L169.866939,34.1 L171.866939,35 L166.666939,35 L168.266939,34.1 L168.266939,27.24 Z M183.057848,31.46 C182.897848,33.76 181.457848,35.3 179.417848,35.3 C176.837848,35.3 175.257848,33.2 175.257848,30.5 C175.257848,27.7 177.157848,25.7 179.517848,25.7 C182.057848,25.7 183.057848,27.5 183.057848,29.6 L176.857848,29.6 L176.857848,29.88 C176.857848,33.06 178.677848,33.8 180.077848,33.8 C181.057848,33.8 182.337848,33.16 183.057848,31.46 Z M179.557848,26.3 C178.337848,26.3 177.217848,27.28 176.917848,29 L179.857848,29 C180.857848,29 181.457848,28.7 181.457848,27.9 C181.457848,26.9 180.657848,26.3 179.557848,26.3 Z M197.174716,22.1386719 C199.303633,22.1386719 201.124904,22.8971278 202.638583,24.4140625 C204.152263,25.9309972 204.909091,27.7538956 204.909091,29.8828125 C204.909091,32.0117294 204.152263,33.8330002 202.638583,35.3466797 C201.124904,36.8603591 199.303633,37.6171875 197.174716,37.6171875 C195.045799,37.6171875 193.222901,36.8603591 191.705966,35.3466797 C190.189031,33.8330002 189.430575,32.0117294 189.430575,29.8828125 C189.430575,27.7538956 190.189031,25.9309972 191.705966,24.4140625 C193.222901,22.8971278 195.045799,22.1386719 197.174716,22.1386719 Z M202.23331,34.1992187 C203.301023,32.9427021 203.834872,31.5039144 203.834872,29.8828125 C203.834872,28.6979107 203.535396,27.5895234 202.936435,26.5576172 C202.337473,25.525711 201.522052,24.711917 200.490146,24.1162109 C199.458239,23.5205048 198.353107,23.2226562 197.174716,23.2226562 C195.566635,23.2226562 194.124592,23.7565051 192.848544,24.8242187 L202.23331,34.1992187 Z M201.491122,34.9414062 L192.106357,25.5566406 C191.045153,26.8131573 190.51456,28.2552002 190.51456,29.8828125 C190.51456,31.0612038 190.812408,32.166336 191.408114,33.1982422 C192.00382,34.2301484 192.817614,35.0455699 193.849521,35.6445312 C194.881427,36.2434926 195.989814,36.5429687 197.174716,36.5429687 C198.776286,36.5429687 200.215074,36.0091199 201.491122,34.9414062 Z M34.46,58.44 C34.46,58.9200024 34.3900007,59.393331 34.25,59.86 C34.1099993,60.326669 33.8766683,60.7433315 33.55,61.11 C33.2233317,61.4766685 32.7900027,61.7699989 32.25,61.99 C31.7099973,62.2100011 31.040004,62.32 30.24,62.32 C28.90666,62.32 27.8800036,61.9700035 27.16,61.27 C26.4399964,60.5699965 26.08,59.5400068 26.08,58.18 L26.08,57.3 L27.98,57.3 L27.98,57.9 C27.98,58.3133354 28.013333,58.6933316 28.08,59.04 C28.146667,59.3866684 28.2633325,59.6866654 28.43,59.94 C28.5966675,60.1933346 28.8299985,60.3899993 29.13,60.53 C29.4300015,60.6700007 29.813331,60.74 30.28,60.74 C31.146671,60.74 31.7433317,60.506669 32.07,60.04 C32.3966683,59.573331 32.56,58.9466706 32.56,58.16 L32.56,47.72 L34.46,47.72 L34.46,58.44 Z M37.58,47.72 L39.48,47.72 L39.48,54.84 L46.72,47.72 L49.18,47.72 L43.16,53.48 L49.42,62 L47.02,62 L41.86,54.78 L39.48,57 L39.48,62 L37.58,62 L37.58,47.72 Z M56.48,47.72 L58.38,47.72 L58.38,53.86 L65.9,53.86 L65.9,47.72 L67.8,47.72 L67.8,62 L65.9,62 L65.9,55.46 L58.38,55.46 L58.38,62 L56.48,62 L56.48,47.72 Z M79.2,62 L77.6,62 L77.6,60.36 L77.56,60.36 C77.1999982,61.0000032 76.7400028,61.4699985 76.18,61.77 C75.6199972,62.0700015 74.9600038,62.22 74.2,62.22 C73.5199966,62.22 72.9533356,62.1300009 72.5,61.95 C72.0466644,61.7699991 71.6800014,61.513335 71.4,61.18 C71.1199986,60.846665 70.9233339,60.4500023 70.81,59.99 C70.6966661,59.5299977 70.64,59.0200028 70.64,58.46 L70.64,51.66 L72.34,51.66 L72.34,58.66 C72.34,59.3000032 72.5266648,59.8066648 72.9,60.18 C73.2733352,60.5533352 73.7866634,60.74 74.44,60.74 C74.9600026,60.74 75.4099981,60.6600008 75.79,60.5 C76.1700019,60.3399992 76.4866654,60.1133348 76.74,59.82 C76.9933346,59.5266652 77.1833327,59.1833353 77.31,58.79 C77.4366673,58.3966647 77.5,57.966669 77.5,57.5 L77.5,51.66 L79.2,51.66 L79.2,62 Z M85.82,63.38 C85.619999,63.8866692 85.4233343,64.3133316 85.23,64.66 C85.0366657,65.0066684 84.8233345,65.2899989 84.59,65.51 C84.3566655,65.7300011 84.0966681,65.8899995 83.81,65.99 C83.5233319,66.0900005 83.1933352,66.14 82.82,66.14 C82.619999,66.14 82.420001,66.1266668 82.22,66.1 C82.019999,66.0733332 81.8266676,66.026667 81.64,65.96 L81.64,64.4 C81.7866674,64.466667 81.9566657,64.5233331 82.15,64.57 C82.3433343,64.6166669 82.506666,64.64 82.64,64.64 C82.9866684,64.64 83.2766655,64.5566675 83.51,64.39 C83.7433345,64.2233325 83.9199994,63.9866682 84.04,63.68 L84.74,61.94 L80.64,51.66 L82.56,51.66 L85.58,60.12 L85.62,60.12 L88.52,51.66 L90.32,51.66 L85.82,63.38 Z M92.8,58.74 C92.8133334,59.1133352 92.8999992,59.4299987 93.06,59.69 C93.2200008,59.9500013 93.4299987,60.1566659 93.69,60.31 C93.9500013,60.4633341 94.2433317,60.573333 94.57,60.64 C94.8966683,60.706667 95.2333316,60.74 95.58,60.74 C95.846668,60.74 96.1266652,60.7200002 96.42,60.68 C96.7133348,60.6399998 96.9833321,60.5666672 97.23,60.46 C97.4766679,60.3533328 97.6799992,60.1966677 97.84,59.99 C98.0000008,59.7833323 98.08,59.5200016 98.08,59.2 C98.08,58.7599978 97.913335,58.4266678 97.58,58.2 C97.246665,57.9733322 96.8300025,57.7900007 96.33,57.65 C95.8299975,57.5099993 95.2866696,57.3833339 94.7,57.27 C94.1133304,57.1566661 93.5700025,56.9966677 93.07,56.79 C92.5699975,56.5833323 92.153335,56.2933352 91.82,55.92 C91.486665,55.5466648 91.32,55.02667 91.32,54.36 C91.32,53.8399974 91.4366655,53.3933352 91.67,53.02 C91.9033345,52.6466648 92.2033315,52.3433345 92.57,52.11 C92.9366685,51.8766655 93.3499977,51.7033339 93.81,51.59 C94.2700023,51.4766661 94.7266644,51.42 95.18,51.42 C95.7666696,51.42 96.3066642,51.4699995 96.8,51.57 C97.2933358,51.6700005 97.7299981,51.8433321 98.11,52.09 C98.4900019,52.3366679 98.7933322,52.6699979 99.02,53.09 C99.2466678,53.5100021 99.3799998,54.0333302 99.42,54.66 L97.72,54.66 C97.6933332,54.326665 97.6066674,54.0500011 97.46,53.83 C97.3133326,53.6099989 97.1266678,53.433334 96.9,53.3 C96.6733322,53.166666 96.4233347,53.0700003 96.15,53.01 C95.8766653,52.9499997 95.6,52.92 95.32,52.92 C95.0666654,52.92 94.8100013,52.9399998 94.55,52.98 C94.2899987,53.0200002 94.0533344,53.0899995 93.84,53.19 C93.6266656,53.2900005 93.453334,53.4233325 93.32,53.59 C93.186666,53.7566675 93.12,53.973332 93.12,54.24 C93.12,54.5333348 93.2233323,54.7766657 93.43,54.97 C93.6366677,55.1633343 93.8999984,55.3233327 94.22,55.45 C94.5400016,55.5766673 94.899998,55.6833329 95.3,55.77 C95.700002,55.8566671 96.099998,55.9466662 96.5,56.04 C96.9266688,56.1333338 97.3433313,56.246666 97.75,56.38 C98.1566687,56.513334 98.5166651,56.6899989 98.83,56.91 C99.1433349,57.1300011 99.3966657,57.406665 99.59,57.74 C99.7833343,58.073335 99.88,58.4866642 99.88,58.98 C99.88,59.6066698 99.7500013,60.1266646 99.49,60.54 C99.2299987,60.9533354 98.8900021,61.2866654 98.47,61.54 C98.0499979,61.7933346 97.5766693,61.9699995 97.05,62.07 C96.5233307,62.1700005 96.0000026,62.22 95.48,62.22 C94.9066638,62.22 94.3600026,62.1600006 93.84,62.04 C93.3199974,61.9199994 92.860002,61.7233347 92.46,61.45 C92.059998,61.1766653 91.7400012,60.8166689 91.5,60.37 C91.2599988,59.9233311 91.1266668,59.3800032 91.1,58.74 L92.8,58.74 Z M101.76,51.66 L103.36,51.66 L103.36,53.18 L103.4,53.18 C104.173337,52.0066608 105.286659,51.42 106.74,51.42 C107.380003,51.42 107.959997,51.553332 108.48,51.82 C109.000003,52.086668 109.366666,52.5399968 109.58,53.18 C109.926668,52.6199972 110.383331,52.1866682 110.95,51.88 C111.51667,51.5733318 112.139997,51.42 112.82,51.42 C113.340003,51.42 113.809998,51.4766661 114.23,51.59 C114.650002,51.7033339 115.009998,51.8799988 115.31,52.12 C115.610001,52.3600012 115.843332,52.6699981 116.01,53.05 C116.176668,53.4300019 116.26,53.886664 116.26,54.42 L116.26,62 L114.56,62 L114.56,55.22 C114.56,54.8999984 114.533334,54.6000014 114.48,54.32 C114.426666,54.0399986 114.326667,53.7966677 114.18,53.59 C114.033333,53.3833323 113.830001,53.2200006 113.57,53.1 C113.309999,52.9799994 112.973335,52.92 112.56,52.92 C111.719996,52.92 111.060002,53.1599976 110.58,53.64 C110.099998,54.1200024 109.86,54.759996 109.86,55.56 L109.86,62 L108.16,62 L108.16,55.22 C108.16,54.886665 108.13,54.5800014 108.07,54.3 C108.01,54.0199986 107.906667,53.7766677 107.76,53.57 C107.613333,53.3633323 107.416668,53.2033339 107.17,53.09 C106.923332,52.9766661 106.606669,52.92 106.22,52.92 C105.726664,52.92 105.303335,53.019999 104.95,53.22 C104.596665,53.420001 104.310001,53.6599986 104.09,53.94 C103.869999,54.2200014 103.71,54.5099985 103.61,54.81 C103.51,55.1100015 103.46,55.359999 103.46,55.56 L103.46,62 L101.76,62 L101.76,51.66 Z M127.98,61.96 C127.686665,62.1333342 127.280003,62.22 126.76,62.22 C126.319998,62.22 125.970001,62.0966679 125.71,61.85 C125.449999,61.6033321 125.32,61.2000028 125.32,60.64 C124.853331,61.2000028 124.310003,61.6033321 123.69,61.85 C123.069997,62.0966679 122.400004,62.22 121.68,62.22 C121.213331,62.22 120.770002,62.1666672 120.35,62.06 C119.929998,61.9533328 119.566668,61.7866678 119.26,61.56 C118.953332,61.3333322 118.710001,61.0366685 118.53,60.67 C118.349999,60.3033315 118.26,59.8600026 118.26,59.34 C118.26,58.7533304 118.359999,58.2733352 118.56,57.9 C118.760001,57.5266648 119.023332,57.2233345 119.35,56.99 C119.676668,56.7566655 120.049998,56.5800006 120.47,56.46 C120.890002,56.3399994 121.319998,56.2400004 121.76,56.16 C122.226669,56.0666662 122.669998,55.9966669 123.09,55.95 C123.510002,55.9033331 123.879998,55.8366671 124.2,55.75 C124.520002,55.6633329 124.773332,55.5366675 124.96,55.37 C125.146668,55.2033325 125.24,54.9600016 125.24,54.64 C125.24,54.2666648 125.170001,53.9666678 125.03,53.74 C124.889999,53.5133322 124.710001,53.3400006 124.49,53.22 C124.269999,53.0999994 124.023335,53.0200002 123.75,52.98 C123.476665,52.9399998 123.206668,52.92 122.94,52.92 C122.219996,52.92 121.620002,53.0566653 121.14,53.33 C120.659998,53.6033347 120.4,54.1199962 120.36,54.88 L118.66,54.88 C118.686667,54.2399968 118.819999,53.7000022 119.06,53.26 C119.300001,52.8199978 119.619998,52.4633347 120.02,52.19 C120.420002,51.9166653 120.876664,51.7200006 121.39,51.6 C121.903336,51.4799994 122.45333,51.42 123.04,51.42 C123.506669,51.42 123.969998,51.453333 124.43,51.52 C124.890002,51.586667 125.306665,51.7233323 125.68,51.93 C126.053335,52.1366677 126.353332,52.4266648 126.58,52.8 C126.806668,53.1733352 126.92,53.659997 126.92,54.26 L126.92,59.58 C126.92,59.980002 126.943333,60.2733324 126.99,60.46 C127.036667,60.6466676 127.193332,60.74 127.46,60.74 C127.606667,60.74 127.779999,60.706667 127.98,60.64 L127.98,61.96 Z M125.22,56.66 C125.006666,56.8200008 124.726668,56.9366663 124.38,57.01 C124.033332,57.0833337 123.670002,57.1433331 123.29,57.19 C122.909998,57.2366669 122.526669,57.2899997 122.14,57.35 C121.753331,57.4100003 121.406668,57.506666 121.1,57.64 C120.793332,57.773334 120.543334,57.9633321 120.35,58.21 C120.156666,58.4566679 120.06,58.7933312 120.06,59.22 C120.06,59.5000014 120.116666,59.7366657 120.23,59.93 C120.343334,60.1233343 120.489999,60.2799994 120.67,60.4 C120.850001,60.5200006 121.059999,60.6066664 121.3,60.66 C121.540001,60.7133336 121.793332,60.74 122.06,60.74 C122.620003,60.74 123.099998,60.6633341 123.5,60.51 C123.900002,60.3566659 124.226665,60.1633345 124.48,59.93 C124.733335,59.6966655 124.919999,59.4433347 125.04,59.17 C125.160001,58.8966653 125.22,58.6400012 125.22,58.4 L125.22,56.66 Z M129.56,51.66 L131.16,51.66 L131.16,53.3 L131.2,53.3 C131.90667,52.0466604 133.026659,51.42 134.56,51.42 C135.240003,51.42 135.806664,51.5133324 136.26,51.7 C136.713336,51.8866676 137.079999,52.146665 137.36,52.48 C137.640001,52.813335 137.836666,53.2099977 137.95,53.67 C138.063334,54.1300023 138.12,54.6399972 138.12,55.2 L138.12,62 L136.42,62 L136.42,55 C136.42,54.3599968 136.233335,53.8533352 135.86,53.48 C135.486665,53.1066648 134.973337,52.92 134.32,52.92 C133.799997,52.92 133.350002,52.9999992 132.97,53.16 C132.589998,53.3200008 132.273335,53.5466652 132.02,53.84 C131.766665,54.1333348 131.576667,54.4766647 131.45,54.87 C131.323333,55.2633353 131.26,55.693331 131.26,56.16 L131.26,62 L129.56,62 L129.56,51.66 Z M141.72,58.74 C141.733333,59.1133352 141.819999,59.4299987 141.98,59.69 C142.140001,59.9500013 142.349999,60.1566659 142.61,60.31 C142.870001,60.4633341 143.163332,60.573333 143.49,60.64 C143.816668,60.706667 144.153332,60.74 144.5,60.74 C144.766668,60.74 145.046665,60.7200002 145.34,60.68 C145.633335,60.6399998 145.903332,60.5666672 146.15,60.46 C146.396668,60.3533328 146.599999,60.1966677 146.76,59.99 C146.920001,59.7833323 147,59.5200016 147,59.2 C147,58.7599978 146.833335,58.4266678 146.5,58.2 C146.166665,57.9733322 145.750002,57.7900007 145.25,57.65 C144.749997,57.5099993 144.20667,57.3833339 143.62,57.27 C143.03333,57.1566661 142.490002,56.9966677 141.99,56.79 C141.489997,56.5833323 141.073335,56.2933352 140.74,55.92 C140.406665,55.5466648 140.24,55.02667 140.24,54.36 C140.24,53.8399974 140.356665,53.3933352 140.59,53.02 C140.823334,52.6466648 141.123331,52.3433345 141.49,52.11 C141.856668,51.8766655 142.269998,51.7033339 142.73,51.59 C143.190002,51.4766661 143.646664,51.42 144.1,51.42 C144.68667,51.42 145.226664,51.4699995 145.72,51.57 C146.213336,51.6700005 146.649998,51.8433321 147.03,52.09 C147.410002,52.3366679 147.713332,52.6699979 147.94,53.09 C148.166668,53.5100021 148.3,54.0333302 148.34,54.66 L146.64,54.66 C146.613333,54.326665 146.526667,54.0500011 146.38,53.83 C146.233333,53.6099989 146.046668,53.433334 145.82,53.3 C145.593332,53.166666 145.343335,53.0700003 145.07,53.01 C144.796665,52.9499997 144.52,52.92 144.24,52.92 C143.986665,52.92 143.730001,52.9399998 143.47,52.98 C143.209999,53.0200002 142.973334,53.0899995 142.76,53.19 C142.546666,53.2900005 142.373334,53.4233325 142.24,53.59 C142.106666,53.7566675 142.04,53.973332 142.04,54.24 C142.04,54.5333348 142.143332,54.7766657 142.35,54.97 C142.556668,55.1633343 142.819998,55.3233327 143.14,55.45 C143.460002,55.5766673 143.819998,55.6833329 144.22,55.77 C144.620002,55.8566671 145.019998,55.9466662 145.42,56.04 C145.846669,56.1333338 146.263331,56.246666 146.67,56.38 C147.076669,56.513334 147.436665,56.6899989 147.75,56.91 C148.063335,57.1300011 148.316666,57.406665 148.51,57.74 C148.703334,58.073335 148.8,58.4866642 148.8,58.98 C148.8,59.6066698 148.670001,60.1266646 148.41,60.54 C148.149999,60.9533354 147.810002,61.2866654 147.39,61.54 C146.969998,61.7933346 146.496669,61.9699995 145.97,62.07 C145.443331,62.1700005 144.920003,62.22 144.4,62.22 C143.826664,62.22 143.280003,62.1600006 142.76,62.04 C142.239997,61.9199994 141.780002,61.7233347 141.38,61.45 C140.979998,61.1766653 140.660001,60.8166689 140.42,60.37 C140.179999,59.9233311 140.046667,59.3800032 140.02,58.74 L141.72,58.74 Z M151.06,59.78 L153.28,59.78 L153.28,61.8 C153.28,62.5600038 153.106668,63.2133306 152.76,63.76 C152.413332,64.3066694 151.853337,64.6933322 151.08,64.92 L151.08,63.92 C151.306668,63.8399996 151.496666,63.7233341 151.65,63.57 C151.803334,63.4166659 151.926666,63.2500009 152.02,63.07 C152.113334,62.8899991 152.176667,62.7066676 152.21,62.52 C152.243333,62.3333324 152.253333,62.1600008 152.24,62 L151.06,62 L151.06,59.78 Z M167.64,62 L165.94,62 L165.94,51.84 L162.26,51.84 L162.26,50.48 C162.740002,50.48 163.206664,50.4433337 163.66,50.37 C164.113336,50.2966663 164.523332,50.160001 164.89,49.96 C165.256668,49.759999 165.566665,49.4866684 165.82,49.14 C166.073335,48.7933316 166.246666,48.353336 166.34,47.82 L167.64,47.82 L167.64,62 Z M174.74,51.5 C174.74,51.8866686 174.806666,52.2233319 174.94,52.51 C175.073334,52.7966681 175.253332,53.0333324 175.48,53.22 C175.706668,53.4066676 175.973332,53.5466662 176.28,53.64 C176.586668,53.7333338 176.913332,53.78 177.26,53.78 C177.940003,53.78 178.499998,53.580002 178.94,53.18 C179.380002,52.779998 179.6,52.2200036 179.6,51.5 C179.6,50.7799964 179.376669,50.2366685 178.93,49.87 C178.483331,49.5033315 177.913337,49.32 177.22,49.32 C176.886665,49.32 176.566668,49.3666662 176.26,49.46 C175.953332,49.5533338 175.690001,49.6933324 175.47,49.88 C175.249999,50.0666676 175.073334,50.293332 174.94,50.56 C174.806666,50.826668 174.74,51.1399982 174.74,51.5 Z M172.94,51.44 C172.94,50.8533304 173.053332,50.3366689 173.28,49.89 C173.506668,49.4433311 173.813331,49.0666682 174.2,48.76 C174.586669,48.4533318 175.029998,48.2200008 175.53,48.06 C176.030002,47.8999992 176.553331,47.82 177.1,47.82 C177.873337,47.82 178.533331,47.9233323 179.08,48.13 C179.626669,48.3366677 180.069998,48.6099983 180.41,48.95 C180.750002,49.2900017 180.999999,49.6766645 181.16,50.11 C181.320001,50.5433355 181.4,50.9866644 181.4,51.44 C181.4,52.0800032 181.223335,52.6633307 180.87,53.19 C180.516665,53.7166693 180.040003,54.113332 179.44,54.38 C180.293338,54.646668 180.926665,55.0833303 181.34,55.69 C181.753335,56.2966697 181.96,57.0399956 181.96,57.92 C181.96,58.6133368 181.836668,59.226664 181.59,59.76 C181.343332,60.293336 181.010002,60.7433315 180.59,61.11 C180.169998,61.4766685 179.673336,61.7533324 179.1,61.94 C178.526664,62.1266676 177.913337,62.22 177.26,62.22 C176.579997,62.22 175.94667,62.1333342 175.36,61.96 C174.77333,61.7866658 174.263336,61.5200018 173.83,61.16 C173.396665,60.7999982 173.056668,60.3500027 172.81,59.81 C172.563332,59.2699973 172.44,58.6400036 172.44,57.92 C172.44,57.0799958 172.653331,56.3500031 173.08,55.73 C173.506669,55.1099969 174.119996,54.6600014 174.92,54.38 C174.319997,54.1399988 173.840002,53.7500027 173.48,53.21 C173.119998,52.6699973 172.94,52.0800032 172.94,51.44 Z M174.24,58 C174.24,58.8533376 174.52333,59.5233309 175.09,60.01 C175.65667,60.4966691 176.379996,60.74 177.26,60.74 C177.686669,60.74 178.076665,60.6700007 178.43,60.53 C178.783335,60.3899993 179.089999,60.1966679 179.35,59.95 C179.610001,59.7033321 179.809999,59.413335 179.95,59.08 C180.090001,58.746665 180.16,58.380002 180.16,57.98 C180.16,57.5933314 180.083334,57.2366683 179.93,56.91 C179.776666,56.5833317 179.566668,56.3000012 179.3,56.06 C179.033332,55.8199988 178.723335,55.6300007 178.37,55.49 C178.016665,55.3499993 177.640002,55.28 177.24,55.28 C176.826665,55.28 176.436668,55.3433327 176.07,55.47 C175.703331,55.5966673 175.383335,55.7799988 175.11,56.02 C174.836665,56.2600012 174.623334,56.546665 174.47,56.88 C174.316666,57.213335 174.24,57.5866646 174.24,58 Z M185.86,51.5 C185.86,51.8866686 185.926666,52.2233319 186.06,52.51 C186.193334,52.7966681 186.373332,53.0333324 186.6,53.22 C186.826668,53.4066676 187.093332,53.5466662 187.4,53.64 C187.706668,53.7333338 188.033332,53.78 188.38,53.78 C189.060003,53.78 189.619998,53.580002 190.06,53.18 C190.500002,52.779998 190.72,52.2200036 190.72,51.5 C190.72,50.7799964 190.496669,50.2366685 190.05,49.87 C189.603331,49.5033315 189.033337,49.32 188.34,49.32 C188.006665,49.32 187.686668,49.3666662 187.38,49.46 C187.073332,49.5533338 186.810001,49.6933324 186.59,49.88 C186.369999,50.0666676 186.193334,50.293332 186.06,50.56 C185.926666,50.826668 185.86,51.1399982 185.86,51.5 Z M184.06,51.44 C184.06,50.8533304 184.173332,50.3366689 184.4,49.89 C184.626668,49.4433311 184.933331,49.0666682 185.32,48.76 C185.706669,48.4533318 186.149997,48.2200008 186.65,48.06 C187.150003,47.8999992 187.673331,47.82 188.22,47.82 C188.993337,47.82 189.653331,47.9233323 190.2,48.13 C190.746669,48.3366677 191.189998,48.6099983 191.53,48.95 C191.870002,49.2900017 192.119999,49.6766645 192.28,50.11 C192.440001,50.5433355 192.52,50.9866644 192.52,51.44 C192.52,52.0800032 192.343335,52.6633307 191.99,53.19 C191.636665,53.7166693 191.160003,54.113332 190.56,54.38 C191.413338,54.646668 192.046665,55.0833303 192.46,55.69 C192.873335,56.2966697 193.08,57.0399956 193.08,57.92 C193.08,58.6133368 192.956668,59.226664 192.71,59.76 C192.463332,60.293336 192.130002,60.7433315 191.71,61.11 C191.289998,61.4766685 190.793336,61.7533324 190.22,61.94 C189.646664,62.1266676 189.033337,62.22 188.38,62.22 C187.699997,62.22 187.06667,62.1333342 186.48,61.96 C185.89333,61.7866658 185.383335,61.5200018 184.95,61.16 C184.516664,60.7999982 184.176668,60.3500027 183.93,59.81 C183.683332,59.2699973 183.56,58.6400036 183.56,57.92 C183.56,57.0799958 183.773331,56.3500031 184.2,55.73 C184.626669,55.1099969 185.239996,54.6600014 186.04,54.38 C185.439997,54.1399988 184.960002,53.7500027 184.6,53.21 C184.239998,52.6699973 184.06,52.0800032 184.06,51.44 Z M185.36,58 C185.36,58.8533376 185.643331,59.5233309 186.21,60.01 C186.77667,60.4966691 187.499996,60.74 188.38,60.74 C188.806669,60.74 189.196665,60.6700007 189.55,60.53 C189.903335,60.3899993 190.209999,60.1966679 190.47,59.95 C190.730001,59.7033321 190.929999,59.413335 191.07,59.08 C191.210001,58.746665 191.28,58.380002 191.28,57.98 C191.28,57.5933314 191.203334,57.2366683 191.05,56.91 C190.896666,56.5833317 190.686668,56.3000012 190.42,56.06 C190.153332,55.8199988 189.843335,55.6300007 189.49,55.49 C189.136665,55.3499993 188.760002,55.28 188.36,55.28 C187.946665,55.28 187.556669,55.3433327 187.19,55.47 C186.823331,55.5966673 186.503335,55.7799988 186.23,56.02 C185.956665,56.2600012 185.743334,56.546665 185.59,56.88 C185.436666,57.213335 185.36,57.5866646 185.36,58 Z M200.66,57.18 L200.66,50.24 L200.62,50.24 L195.9,57.18 L200.66,57.18 Z M202.26,57.18 L204.18,57.18 L204.18,58.68 L202.26,58.68 L202.26,62 L200.66,62 L200.66,58.68 L194.44,58.68 L194.44,57.04 L200.9,47.82 L202.26,47.82 L202.26,57.18 Z M52.0798438,71.4 L52.0798438,74.42 C55.7798438,74.64 58.6598438,77.7 58.6598438,81.4 C58.6598438,85.1 55.7798438,88.14 52.0798438,88.36 L52.0798438,91.4 L51.2798438,91.4 L51.2798438,88.36 C47.5798438,88.14 44.6998438,85.1 44.6998438,81.4 C44.6998438,77.7 47.5798438,74.64 51.2798438,74.42 L51.2798438,71.4 L52.0798438,71.4 Z M52.0798438,75.26 L52.0798438,87.54 C55.2998438,87.36 57.8398438,84.64 57.8398438,81.4 C57.8398438,78.16 55.2998438,75.44 52.0798438,75.26 Z M51.2798438,87.54 L51.2798438,75.26 C48.0598438,75.44 45.5198437,78.16 45.5198437,81.4 C45.5198437,84.64 48.0598438,87.36 51.2798438,87.54 Z M69.3945312,89.2734375 L69.3945312,88.9121094 C70.2408896,88.8990885 71.0286422,88.7021503 71.7578125,88.3212891 C72.4869828,87.9404278 73.1917284,87.2747443 73.8720703,86.3242187 C74.5524123,85.3736932 75.0260403,84.3287817 75.2929688,83.1894531 C74.2708282,83.8470085 73.3463583,84.1757812 72.5195312,84.1757812 C71.588537,84.1757812 70.7910189,83.8160843 70.1269531,83.0966797 C69.4628873,82.377275 69.1308594,81.421881 69.1308594,80.2304687 C69.1308594,79.0716088 69.4628873,78.0397181 70.1269531,77.1347656 C70.9277384,76.0344997 71.9726498,75.484375 73.2617188,75.484375 C74.3489638,75.484375 75.279944,75.9335893 76.0546875,76.8320312 C77.0052131,77.9453181 77.4804688,79.3190022 77.4804688,80.953125 C77.4804688,82.4244865 77.1191442,83.7965431 76.3964844,85.0693359 C75.6738245,86.3421288 74.6679752,87.3984333 73.3789062,88.2382812 C72.3307239,88.9283889 71.1881572,89.2734375 69.9511719,89.2734375 L69.3945312,89.2734375 Z M75.4492188,82.4667969 C75.5664068,81.6204385 75.625,80.9433619 75.625,80.4355469 C75.625,79.8040333 75.5175792,79.122074 75.3027344,78.3896484 C75.0878896,77.6572229 74.7835306,77.0957051 74.3896484,76.7050781 C73.9957663,76.3144512 73.5481796,76.1191406 73.046875,76.1191406 C72.467445,76.1191406 71.9596376,76.3795547 71.5234375,76.9003906 C71.0872374,77.4212266 70.8691406,78.1959584 70.8691406,79.2246094 C70.8691406,80.5983142 71.1588513,81.6725222 71.7382812,82.4472656 C72.1614604,83.0071643 72.6822886,83.2871094 73.3007812,83.2871094 C73.6002619,83.2871094 73.9550761,83.2154955 74.3652344,83.0722656 C74.7753927,82.9290357 75.1367172,82.7272148 75.4492188,82.4667969 Z M80.3515625,75.7578125 L87.4511719,75.7578125 L87.4511719,76.1289062 L83.0371094,89.2734375 L81.9433594,89.2734375 L85.8984375,77.3496094 L82.2558594,77.3496094 C81.5201786,77.3496094 80.9960953,77.4374991 80.6835938,77.6132812 C80.136716,77.9127619 79.6972673,78.3749969 79.3652344,79 L79.0820312,78.8925781 L80.3515625,75.7578125 Z M92.1777344,82.3300781 C91.1295521,81.4706988 90.4541031,80.7806016 90.1513672,80.2597656 C89.8486313,79.7389297 89.6972656,79.1985705 89.6972656,78.6386719 C89.6972656,77.7792926 90.0292936,77.0387401 90.6933594,76.4169922 C91.3574252,75.7952443 92.2395778,75.484375 93.3398438,75.484375 C94.4075574,75.484375 95.2669238,75.7740856 95.9179688,76.3535156 C96.5690137,76.9329456 96.8945312,77.5937463 96.8945312,78.3359375 C96.8945312,78.8307316 96.7187518,79.3352839 96.3671875,79.8496094 C96.0156232,80.3639349 95.2832087,80.9693976 94.1699219,81.6660156 C95.3157609,82.5514367 96.0742169,83.2480443 96.4453125,83.7558594 C96.9401066,84.4199252 97.1875,85.119788 97.1875,85.8554687 C97.1875,86.786463 96.8326858,87.5823535 96.1230469,88.2431641 C95.4134079,88.9039747 94.4824276,89.234375 93.3300781,89.234375 C92.0735614,89.234375 91.0937535,88.8404987 90.390625,88.0527344 C89.8307264,87.4212208 89.5507812,86.7311235 89.5507812,85.9824219 C89.5507812,85.3964814 89.7477194,84.8154326 90.1416016,84.2392578 C90.5354837,83.6630831 91.2141879,83.0266962 92.1777344,82.3300781 Z M93.7109375,81.2851562 C94.4921914,80.5820277 94.9869781,80.0270203 95.1953125,79.6201172 C95.4036469,79.2132141 95.5078125,78.7526067 95.5078125,78.2382812 C95.5078125,77.5546841 95.3157571,77.0192077 94.9316406,76.6318359 C94.5475241,76.2444642 94.0234408,76.0507812 93.359375,76.0507812 C92.6953092,76.0507812 92.15495,76.2428366 91.7382812,76.6269531 C91.3216125,77.0110696 91.1132812,77.4602839 91.1132812,77.9746094 C91.1132812,78.3131527 91.1995434,78.651691 91.3720703,78.9902344 C91.5445972,79.3287777 91.790363,79.6510401 92.109375,79.9570312 L93.7109375,81.2851562 Z M92.6367188,82.7011719 C92.0963515,83.1569033 91.6959648,83.6533176 91.4355469,84.1904297 C91.1751289,84.7275417 91.0449219,85.3085906 91.0449219,85.9335937 C91.0449219,86.7734417 91.2744118,87.4456355 91.7333984,87.9501953 C92.1923851,88.4547551 92.7766892,88.7070312 93.4863281,88.7070312 C94.1894566,88.7070312 94.7526021,88.5084655 95.1757812,88.1113281 C95.5989604,87.7141907 95.8105469,87.2324247 95.8105469,86.6660156 C95.8105469,86.1972633 95.6868502,85.7773456 95.4394531,85.40625 C94.9772112,84.7161424 94.0429758,83.8144587 92.6367188,82.7011719 Z M99.1503906,83.7753906 L104.199219,83.7753906 L104.199219,85.25 L99.1503906,85.25 L99.1503906,83.7753906 Z M105.722656,82.4570312 C105.722656,80.946607 105.950519,79.6461643 106.40625,78.5556641 C106.861981,77.4651638 107.467444,76.6529975 108.222656,76.1191406 C108.808597,75.6959614 109.414059,75.484375 110.039062,75.484375 C111.054693,75.484375 111.966142,76.0019479 112.773438,77.0371094 C113.782557,78.3196679 114.287109,80.0579317 114.287109,82.2519531 C114.287109,83.7884191 114.065757,85.0937446 113.623047,86.1679687 C113.180336,87.2421929 112.615563,88.0218075 111.928711,88.5068359 C111.241859,88.9918644 110.57943,89.234375 109.941406,89.234375 C108.678379,89.234375 107.626957,88.4889397 106.787109,86.9980469 C106.07747,85.7415302 105.722656,84.2278734 105.722656,82.4570312 Z M107.636719,82.7011719 C107.636719,84.5240977 107.861326,86.011713 108.310547,87.1640625 C108.681642,88.1341194 109.235022,88.6191406 109.970703,88.6191406 C110.322267,88.6191406 110.686847,88.4612646 111.064453,88.1455078 C111.442059,87.829751 111.728515,87.300785 111.923828,86.5585937 C112.223309,85.4387965 112.373047,83.8600362 112.373047,81.8222656 C112.373047,80.3118414 112.216798,79.0520884 111.904297,78.0429687 C111.669921,77.2942671 111.367189,76.7636734 110.996094,76.4511719 C110.729165,76.2363271 110.406903,76.1289062 110.029297,76.1289062 C109.586586,76.1289062 109.19271,76.327472 108.847656,76.7246094 C108.378904,77.2649767 108.059897,78.1145775 107.890625,79.2734375 C107.721353,80.4322975 107.636719,81.5748642 107.636719,82.7011719 Z M117.34375,77.0566406 L120.566406,75.484375 L120.888672,75.484375 L120.888672,86.6660156 C120.888672,87.4082068 120.919596,87.8704418 120.981445,88.0527344 C121.043295,88.235027 121.171874,88.3749995 121.367188,88.4726562 C121.562501,88.570313 121.959632,88.625651 122.558594,88.6386719 L122.558594,89 L117.578125,89 L117.578125,88.6386719 C118.203128,88.625651 118.60677,88.5719406 118.789062,88.4775391 C118.971355,88.3831375 119.098307,88.2561857 119.169922,88.0966797 C119.241537,87.9371737 119.277344,87.4602904 119.277344,86.6660156 L119.277344,79.5175781 C119.277344,78.5540316 119.244792,77.9355482 119.179688,77.6621094 C119.134114,77.453775 119.051107,77.3007817 118.930664,77.203125 C118.810221,77.1054683 118.665365,77.0566406 118.496094,77.0566406 C118.255207,77.0566406 117.919924,77.1575511 117.490234,77.359375 L117.34375,77.0566406 Z M134.306641,84.1171875 L134.306641,85.5039062 L132.529297,85.5039062 L132.529297,89 L130.917969,89 L130.917969,85.5039062 L125.3125,85.5039062 L125.3125,84.2539062 L131.455078,75.484375 L132.529297,75.484375 L132.529297,84.1171875 L134.306641,84.1171875 Z M130.917969,84.1171875 L130.917969,77.5449219 L126.269531,84.1171875 L130.917969,84.1171875 Z M135.722656,82.4570312 C135.722656,80.946607 135.950519,79.6461643 136.40625,78.5556641 C136.861981,77.4651638 137.467444,76.6529975 138.222656,76.1191406 C138.808597,75.6959614 139.414059,75.484375 140.039062,75.484375 C141.054693,75.484375 141.966142,76.0019479 142.773438,77.0371094 C143.782557,78.3196679 144.287109,80.0579317 144.287109,82.2519531 C144.287109,83.7884191 144.065757,85.0937446 143.623047,86.1679687 C143.180336,87.2421929 142.615563,88.0218075 141.928711,88.5068359 C141.241859,88.9918644 140.57943,89.234375 139.941406,89.234375 C138.678379,89.234375 137.626957,88.4889397 136.787109,86.9980469 C136.07747,85.7415302 135.722656,84.2278734 135.722656,82.4570312 Z M137.636719,82.7011719 C137.636719,84.5240977 137.861326,86.011713 138.310547,87.1640625 C138.681642,88.1341194 139.235022,88.6191406 139.970703,88.6191406 C140.322267,88.6191406 140.686847,88.4612646 141.064453,88.1455078 C141.442059,87.829751 141.728515,87.300785 141.923828,86.5585937 C142.223309,85.4387965 142.373047,83.8600362 142.373047,81.8222656 C142.373047,80.3118414 142.216798,79.0520884 141.904297,78.0429687 C141.669921,77.2942671 141.367189,76.7636734 140.996094,76.4511719 C140.729165,76.2363271 140.406903,76.1289062 140.029297,76.1289062 C139.586586,76.1289062 139.19271,76.327472 138.847656,76.7246094 C138.378904,77.2649767 138.059897,78.1145775 137.890625,79.2734375 C137.721353,80.4322975 137.636719,81.5748642 137.636719,82.7011719 Z M154.306641,84.1171875 L154.306641,85.5039062 L152.529297,85.5039062 L152.529297,89 L150.917969,89 L150.917969,85.5039062 L145.3125,85.5039062 L145.3125,84.2539062 L151.455078,75.484375 L152.529297,75.484375 L152.529297,84.1171875 L154.306641,84.1171875 Z M150.917969,84.1171875 L150.917969,77.5449219 L146.269531,84.1171875 L150.917969,84.1171875 Z M164.306641,84.1171875 L164.306641,85.5039062 L162.529297,85.5039062 L162.529297,89 L160.917969,89 L160.917969,85.5039062 L155.3125,85.5039062 L155.3125,84.2539062 L161.455078,75.484375 L162.529297,75.484375 L162.529297,84.1171875 L164.306641,84.1171875 Z M160.917969,84.1171875 L160.917969,77.5449219 L156.269531,84.1171875 L160.917969,84.1171875 Z M167.011719,75.7578125 L174.111328,75.7578125 L174.111328,76.1289062 L169.697266,89.2734375 L168.603516,89.2734375 L172.558594,77.3496094 L168.916016,77.3496094 C168.180335,77.3496094 167.656252,77.4374991 167.34375,77.6132812 C166.796872,77.9127619 166.357424,78.3749969 166.025391,79 L165.742188,78.8925781 L167.011719,75.7578125 Z M183.964844,75.484375 L183.964844,75.8457031 C183.105464,75.930339 182.403974,76.1012357 181.860352,76.3583984 C181.316729,76.6155612 180.779625,77.0078099 180.249023,77.5351562 C179.718422,78.0625026 179.278973,78.6500619 178.930664,79.2978516 C178.582355,79.9456413 178.291017,80.7154903 178.056641,81.6074219 C178.994145,80.9628874 179.934891,80.640625 180.878906,80.640625 C181.783859,80.640625 182.568356,81.0052047 183.232422,81.734375 C183.896488,82.4635453 184.228516,83.4010359 184.228516,84.546875 C184.228516,85.6536514 183.893233,86.6627559 183.222656,87.5742187 C182.415361,88.6809951 181.347663,89.234375 180.019531,89.234375 C179.114579,89.234375 178.346357,88.9348988 177.714844,88.3359375 C176.477858,87.1705671 175.859375,85.6601655 175.859375,83.8046875 C175.859375,82.6197857 176.097003,81.4934949 176.572266,80.4257812 C177.047528,79.3580676 177.726233,78.4108114 178.608398,77.5839844 C179.490564,76.7571573 180.335282,76.2005223 181.142578,75.9140625 C181.949874,75.6276027 182.701819,75.484375 183.398438,75.484375 L183.964844,75.484375 Z M177.890625,82.3203125 C177.773437,83.1992231 177.714844,83.9088515 177.714844,84.4492187 C177.714844,85.0742219 177.830402,85.752926 178.061523,86.4853516 C178.292644,87.2177771 178.636065,87.798826 179.091797,88.2285156 C179.42383,88.5345067 179.827472,88.6875 180.302734,88.6875 C180.869143,88.6875 181.375323,88.4205756 181.821289,87.8867187 C182.267255,87.3528619 182.490234,86.5911508 182.490234,85.6015625 C182.490234,84.4882757 182.268882,83.5247437 181.826172,82.7109375 C181.383461,81.8971313 180.755212,81.4902344 179.941406,81.4902344 C179.694009,81.4902344 179.428712,81.5423172 179.145508,81.6464844 C178.862303,81.7506516 178.444013,81.9752587 177.890625,82.3203125 Z M186.015625,78.2773437 C186.393231,77.3854122 186.870114,76.6969425 187.446289,76.2119141 C188.022464,75.7268856 188.74023,75.484375 189.599609,75.484375 C190.660813,75.484375 191.474607,75.8294236 192.041016,76.5195312 C192.470705,77.0338567 192.685547,77.5839814 192.685547,78.1699219 C192.685547,79.1334684 192.080084,80.1295521 190.869141,81.1582031 C191.682947,81.4772151 192.298175,81.9329397 192.714844,82.5253906 C193.131512,83.1178415 193.339844,83.8144491 193.339844,84.6152344 C193.339844,85.7610734 192.975264,86.7539021 192.246094,87.59375 C191.295568,88.6875055 189.918629,89.234375 188.115234,89.234375 C187.223303,89.234375 186.616213,89.123699 186.293945,88.9023437 C185.971678,88.6809885 185.810547,88.4433606 185.810547,88.1894531 C185.810547,88.0006501 185.887044,87.8346361 186.040039,87.6914062 C186.193035,87.5481764 186.376952,87.4765625 186.591797,87.4765625 C186.754558,87.4765625 186.920572,87.5026039 187.089844,87.5546875 C187.200521,87.5872397 187.45117,87.7060537 187.841797,87.9111328 C188.232424,88.116212 188.502603,88.2382811 188.652344,88.2773437 C188.89323,88.3489587 189.150389,88.3847656 189.423828,88.3847656 C190.087894,88.3847656 190.665688,88.1276067 191.157227,87.6132812 C191.648765,87.0989558 191.894531,86.4902379 191.894531,85.7871094 C191.894531,85.2727839 191.7806,84.7714868 191.552734,84.2832031 C191.383463,83.918618 191.197918,83.641928 190.996094,83.453125 C190.716144,83.192707 190.332034,82.9567068 189.84375,82.7451172 C189.355466,82.5335276 188.857424,82.4277344 188.349609,82.4277344 L188.037109,82.4277344 L188.037109,82.1347656 C188.551435,82.0696611 189.06738,81.8841161 189.584961,81.578125 C190.102542,81.2721339 190.478514,80.904299 190.712891,80.4746094 C190.947267,80.0449197 191.064453,79.5729192 191.064453,79.0585937 C191.064453,78.3880175 190.854494,77.8460307 190.43457,77.4326172 C190.014646,77.0192037 189.492191,76.8125 188.867188,76.8125 C187.858068,76.8125 187.014977,77.3528592 186.337891,78.4335937 L186.015625,78.2773437 Z M197.011719,75.7578125 L204.111328,75.7578125 L204.111328,76.1289062 L199.697266,89.2734375 L198.603516,89.2734375 L202.558594,77.3496094 L198.916016,77.3496094 C198.180335,77.3496094 197.656252,77.4374991 197.34375,77.6132812 C196.796872,77.9127619 196.357424,78.3749969 196.025391,79 L195.742188,78.8925781 L197.011719,75.7578125 Z" id="AgainstNature⃠JKHuysmans,1884⏀978-0140447637" fill="#000000" fill-rule="nonzero" opacity="0.849999964"></path>
        </g>
    </g>
</svg>