<svg width="82" height="32" viewBox="0 0 82 32" fill="none" xmlns="http://www.w3.org/2000/svg">
<path d="M43.0241 8.75592V22.6382H40.5755V8.75592H43.0241ZM50.5437 12.6507C51.4949 12.6507 52.3626 12.882 53.1467 13.3448C53.9308 13.7947 54.5605 14.4116 55.0362 15.1957C55.5246 15.967 55.7689 16.8347 55.7689 17.7987C55.7689 18.7628 55.5246 19.6304 55.0362 20.4016C54.5605 21.1729 53.9308 21.7899 53.1467 22.2526C52.3626 22.7025 51.4949 22.9275 50.5437 22.9275C49.6053 22.9275 48.7377 22.7025 47.9408 22.2526C47.1567 21.7899 46.5268 21.1729 46.0512 20.4016C45.5756 19.6304 45.3379 18.7628 45.3379 17.7987C45.3379 16.8347 45.5756 15.967 46.0512 15.1957C46.5268 14.4116 47.1567 13.7947 47.9408 13.3448C48.7377 12.882 49.6053 12.6507 50.5437 12.6507ZM50.5437 15.0222C50.081 15.0222 49.6503 15.1315 49.2519 15.35C48.8534 15.5685 48.5321 15.8835 48.2878 16.2948C48.0564 16.7061 47.9408 17.2075 47.9408 17.7987C47.9408 18.39 48.0564 18.8913 48.2878 19.3027C48.5321 19.714 48.8534 20.0289 49.2519 20.2474C49.6503 20.4531 50.081 20.5559 50.5437 20.5559C51.0064 20.5559 51.4371 20.4531 51.8356 20.2474C52.234 20.0289 52.5554 19.714 52.7996 19.3027C53.0438 18.8913 53.166 18.39 53.166 17.7987C53.166 17.2075 53.0438 16.7061 52.7996 16.2948C52.5554 15.8835 52.234 15.5685 51.8356 15.35C51.4371 15.1315 51.0064 15.0222 50.5437 15.0222ZM62.6136 12.6507C63.5648 12.6507 64.4324 12.882 65.2165 13.3448C66.0006 13.7947 66.6305 14.4116 67.106 15.1957C67.5945 15.967 67.8388 16.8347 67.8388 17.7987C67.8388 18.7628 67.5945 19.6304 67.106 20.4016C66.6305 21.1729 66.0006 21.7899 65.2165 22.2526C64.4324 22.7025 63.5648 22.9275 62.6136 22.9275C61.6753 22.9275 60.8076 22.7025 60.0107 22.2526C59.2266 21.7899 58.5967 21.1729 58.1212 20.4016C57.6455 19.6304 57.4077 18.7628 57.4077 17.7987C57.4077 16.8347 57.6455 15.967 58.1212 15.1957C58.5967 14.4116 59.2266 13.7947 60.0107 13.3448C60.8076 12.882 61.6753 12.6507 62.6136 12.6507ZM62.6136 15.0222C62.1508 15.0222 61.7203 15.1315 61.3218 15.35C60.9233 15.5685 60.602 15.8835 60.3577 16.2948C60.1263 16.7061 60.0107 17.2075 60.0107 17.7987C60.0107 18.39 60.1263 18.8913 60.3577 19.3027C60.602 19.714 60.9233 20.0289 61.3218 20.2474C61.7203 20.4531 62.1508 20.5559 62.6136 20.5559C63.0764 20.5559 63.5069 20.4531 63.9054 20.2474C64.3039 20.0289 64.6252 19.714 64.8695 19.3027C65.1137 18.8913 65.2358 18.39 65.2358 17.7987C65.2358 17.2075 65.1137 16.7061 64.8695 16.2948C64.6252 15.8835 64.3039 15.5685 63.9054 15.35C63.5069 15.1315 63.0764 15.0222 62.6136 15.0222ZM75.7247 12.6507C76.4959 12.6507 77.2093 12.85 77.8649 13.2484C78.5332 13.634 79.0668 14.206 79.4652 14.9644C79.8765 15.71 80.0822 16.6226 80.0822 17.7023C80.0822 18.782 79.8765 19.714 79.4652 20.498C79.0668 21.2821 78.5205 21.8863 77.8263 22.3105C77.1451 22.7218 76.3867 22.9275 75.5511 22.9275C75.0113 22.9275 74.4714 22.7989 73.9316 22.5419C73.4045 22.2719 72.9611 21.9377 72.6012 21.5392V27.2657H70.1524V12.9013H72.6012V14.5402C72.8839 14.0132 73.2953 13.5698 73.8351 13.2099C74.375 12.8371 75.0049 12.6507 75.7247 12.6507ZM75.1077 15.0994C74.6707 15.0994 74.2593 15.215 73.8737 15.4464C73.4881 15.665 73.1732 15.9799 72.929 16.3912C72.6976 16.8025 72.5883 17.2974 72.6012 17.8758V19.2834C72.9482 19.6433 73.321 19.9453 73.7195 20.1895C74.1308 20.4209 74.5742 20.5366 75.0499 20.5366C75.5511 20.5366 75.9882 20.4016 76.361 20.1317C76.7337 19.8618 77.0229 19.5148 77.2286 19.0906C77.4342 18.6535 77.5371 18.1908 77.5371 17.7023C77.5371 16.9696 77.3122 16.3526 76.8622 15.8513C76.4253 15.35 75.8404 15.0994 75.1077 15.0994Z" fill="#121316"/>
<path d="M21.5215 16.0371C21.5215 19.066 19.0661 21.5215 16.0372 21.5215C13.0083 21.5215 10.5528 19.066 10.5528 16.0371" stroke="#FFD5A4" stroke-width="2.19375"/>
<path d="M6.16528 16.0372C6.16528 10.5852 10.5851 6.16533 16.0372 6.16533C21.4892 6.16533 25.909 10.5852 25.909 16.0372C25.909 21.4892 21.4892 25.9091 16.0372 25.9091" stroke="#A4D3FF" stroke-width="2.19375"/>
<path d="M1.77782 16.0371C1.77782 8.16184 8.16195 1.77771 16.0372 1.77771C23.9124 1.77771 30.2965 8.16184 30.2965 16.0371C30.2965 23.9123 23.9124 30.2964 16.0372 30.2964" stroke="#A4A7FF" stroke-width="2.19375"/>
</svg>
