<?xml version="1.0" encoding="UTF-8"?>
<svg width="301px" height="421px" viewBox="0 0 301 421" version="1.1" xmlns="http://www.w3.org/2000/svg" xmlns:xlink="http://www.w3.org/1999/xlink">
    <!-- Generator: Sketch 61.2 (89653) - https://sketch.com -->
    <title>Group 56</title>
    <desc>Created with Sketch.</desc>
    <defs>
        <polygon id="path-1" points="0 0.0485834009 42.2732925 0.0485834009 42.2732925 69.4810064 0 69.4810064"></polygon>
        <polygon id="path-3" points="0.452222731 0.24572363 23.0468827 0.24572363 23.0468827 35 0.452222731 35"></polygon>
        <polygon id="path-5" points="0.16314276 0.34 13.7331 0.34 13.7331 34.0905 0.16314276 34.0905"></polygon>
    </defs>
    <g id="Page-1" stroke="none" stroke-width="1" fill="none" fill-rule="evenodd">
        <g id="Group-56" transform="translate(0.000000, -1.000000)">
            <path d="M46.3427,150.124 C46.3427,92.881 92.7467,46.477 149.9897,46.477 C207.2327,46.477 253.6357,92.881 253.6357,150.124 L253.6357,269.174 C253.6357,326.417 207.2327,372.822 149.9897,372.822 C92.7467,372.822 46.3427,326.417 46.3427,269.174 L46.3427,150.124 Z" id="Fill-1" fill="#231F20"></path>
            <path d="M223.7475,207.8217 C223.7475,219.5757 214.2195,229.1027 202.4655,229.1027 C190.7125,229.1027 181.1845,219.5757 181.1845,207.8217 C181.1845,196.0687 190.7125,186.5407 202.4655,186.5407 C214.2195,186.5407 223.7475,196.0687 223.7475,207.8217" id="Fill-3" fill="#FEFEFE"></path>
            <path d="M98.9277,229.558 C98.1497,230.335 96.8767,230.335 96.0987,229.558 L75.7777,209.236 C74.9997,208.458 74.9997,207.185 75.7777,206.408 L96.0987,186.085 C96.8767,185.308 98.1497,185.308 98.9277,186.085 L119.2497,206.408 C120.0277,207.185 120.0277,208.458 119.2497,209.236 L98.9277,229.558 Z" id="Fill-5" fill="#FEFEFE"></path>
            <path d="M157.5121,265.3471 C157.5121,266.4471 156.6121,267.3471 155.5121,267.3471 L144.4671,267.3471 C143.3671,267.3471 142.4671,266.4471 142.4671,265.3471 L142.4671,76.1511 C142.4671,75.0511 143.3671,74.1511 144.4671,74.1511 L155.5121,74.1511 C156.6121,74.1511 157.5121,75.0511 157.5121,76.1511 L157.5121,265.3471 Z" id="Fill-7" fill="#FEFEFE"></path>
            <path d="M150.4374,296.9672 L159.3994,290.8302 C159.7784,290.5662 160.1104,290.7912 160.1104,290.7912 L183.4964,298.0892 C184.2024,298.2802 184.0824,298.8802 184.0824,298.8802 C182.2434,309.0322 168.0164,318.7232 150.6704,318.8672 L150.2084,318.8672 L150.2094,318.8672 L149.7474,318.8672 C132.4014,318.7232 118.1744,309.0322 116.3354,298.8802 C116.3354,298.8802 116.2164,298.2802 116.9224,298.0892 L140.3074,290.7912 C140.3074,290.7912 140.6394,290.5662 141.0194,290.8302 L149.9804,296.9672 C149.9804,296.9672 150.1854,297.0812 150.4374,296.9672" id="Fill-9" fill="#FEFEFE"></path>
            <path d="M25.8237,129.2543 C32.0667,129.7783 35.3197,134.9293 34.7637,141.5483 C34.4927,144.7773 33.0517,149.0463 31.8707,150.1943 C31.6287,150.4993 31.4577,150.5933 30.8077,150.592308 L22.2327,150.0893 C21.9057,150.1163 21.9007,149.5203 22.1787,149.4353 C26.8857,147.6083 33.1077,145.1493 33.5357,140.0363 C33.7437,137.5613 32.8577,135.2103 28.7667,134.8673 C18.4337,134.0003 16.9857,149.3243 7.8367,148.5563 C1.7557,148.0463 -0.3893,141.9593 0.0717,136.4693 C0.2877,133.8863 1.0837,130.8633 1.8557,129.4113 C2.2867,128.7963 2.5697,128.6573 2.9997,128.6933 L10.9107,129.3583 C11.1267,129.3763 11.2467,129.8743 11.0187,130.0173 C9.1747,130.6753 1.6117,132.3173 1.1337,138.0223 C0.8887,140.9273 2.6007,143.1313 5.2387,143.3523 C13.8487,144.0753 16.1367,128.4413 25.8237,129.2543" id="Fill-11" fill="#231F20"></path>
            <path d="M43.6034,84.5727 C45.3564,85.7847 48.0784,87.3477 50.2644,88.4107 C50.7984,88.6707 50.9214,88.9097 50.6384,89.4927 L39.8744,111.6407 C39.7564,111.8837 39.1734,111.5997 39.2684,111.4057 C40.6614,108.5397 40.2914,107.9407 37.4754,106.5717 L14.9874,95.6417 C12.2194,94.2967 11.3764,94.5477 10.0784,97.2187 C9.9604,97.4617 9.3774,97.1787 9.4484,97.0327 L19.6224,76.0997 C19.7644,75.8077 19.9574,75.7817 20.2484,75.9237 C22.1664,76.7957 25.2014,78.2107 26.7064,78.9427 C26.9004,79.0367 26.6414,79.5717 26.4724,79.5487 C22.3584,78.8707 18.5644,80.8697 16.6524,84.8037 L16.2044,85.7267 C14.7644,88.6887 15.1554,89.1187 17.5854,90.4207 L27.4934,95.2357 L30.4444,89.1647 C32.0024,85.9597 31.7614,83.8607 29.0894,82.5627 C28.7984,82.4207 29.1284,81.7407 29.4694,81.9067 C31.5574,82.9217 32.4334,83.4677 33.7444,84.1047 C35.3954,84.9077 36.8994,85.5187 38.7454,86.4147 C39.0854,86.5797 38.6584,87.2127 38.4154,87.0947 C35.5984,85.7257 33.2444,86.8627 31.7574,89.9227 L28.8534,95.8967 L39.8304,101.2317 C42.4044,102.4827 43.2214,102.1597 44.4734,99.5857 L45.1334,98.2257 C47.1874,93.9997 46.3824,88.9857 43.1994,85.1567 C43.0524,84.9657 43.4814,84.4537 43.6034,84.5727" id="Fill-13" fill="#231F20"></path>
            <path d="M66.5903,25.7949 C64.3393,27.7319 64.2323,30.6719 66.4453,33.3279 L84.5763,54.4879 C84.8643,54.7389 83.9763,55.8589 83.4193,55.6259 L47.7413,48.8479 L61.8223,65.2999 C64.0703,67.9959 66.9183,68.3249 69.2103,66.3529 C69.4153,66.1769 69.8383,66.6679 69.6323,66.8439 C68.4043,67.9009 67.0243,68.9459 65.2233,70.4949 C63.6263,71.8689 62.1413,73.2889 60.8723,74.3809 C60.6673,74.5569 60.2443,74.0659 60.4493,73.8889 C62.7013,71.9529 62.8013,69.0879 60.5533,66.3919 L45.1333,48.3839 C41.9113,47.9509 40.3073,48.4039 39.0793,49.4609 C38.9563,49.5659 38.5333,49.0749 38.6563,48.9659 C39.9253,47.8739 41.6743,46.5119 42.6973,45.6309 C43.6803,44.7869 45.2063,43.3309 45.4933,43.0879 C46.2303,42.4549 46.6413,43.0979 49.2493,43.5619 L77.5313,48.8649 L65.2173,34.3839 C63.0043,31.7289 60.1623,31.3239 57.8293,33.3319 C57.6243,33.5069 57.2023,33.0159 57.4063,32.8369 C58.4713,31.9199 60.0503,30.7749 61.8523,29.2259 C63.4483,27.8529 64.8573,26.4269 66.1673,25.3039 C66.3313,25.1629 66.7543,25.6539 66.5903,25.7949" id="Fill-15" fill="#231F20"></path>
            <path d="M121.9257,28.1059 C123.8627,34.0639 120.3747,39.0589 114.0577,41.1119 C110.9757,42.1129 106.4817,42.4389 104.9667,41.7949 C104.5917,41.6899 104.4387,41.5689 104.1867,40.9689 L101.3267,32.8699 C101.1757,32.5779 101.7237,32.3429 101.9097,32.5669 C105.4187,36.1969 110.0957,40.9799 114.9757,39.3939 C117.3377,38.6259 119.1607,36.8979 117.8927,32.9939 C114.6877,23.1329 99.9997,27.7359 97.1617,19.0049 C95.2757,13.2009 100.0557,8.8649 105.2947,7.1619 C107.7597,6.3609 110.8547,5.9229 112.4927,6.0719 C113.2257,6.2309 113.4637,6.4379 113.5967,6.8489 L116.0507,14.3989 C116.1177,14.6039 115.7057,14.9089 115.4847,14.7529 C114.1637,13.3089 109.7197,6.9729 104.2757,8.7429 C101.5017,9.6439 100.1337,12.0759 100.9517,14.5929 C103.6227,22.8109 118.9207,18.8609 121.9257,28.1059" id="Fill-17" fill="#231F20"></path>
            <path d="M182.3217,38.3744 C186.3837,39.8454 187.3477,39.5624 188.4147,36.6174 L196.9277,13.1054 C197.8427,10.7374 197.4357,9.9584 195.6077,9.2964 L194.9467,9.0574 C191.3927,7.7704 186.5317,10.0884 184.4107,14.2024 C184.2867,14.3874 183.6627,14.0464 183.8387,13.8804 C184.7727,12.0934 187.2057,6.4834 188.2587,4.0504 C188.3327,3.8474 188.9747,4.1374 188.9007,4.3404 C188.5327,5.3564 189.9877,5.9404 190.7997,6.2314 C193.5057,7.3264 197.4477,8.8114 201.0527,10.1164 C205.4707,11.7164 208.3697,12.5934 210.9097,13.5154 C212.9917,14.2694 214.1317,14.4524 214.7717,13.4784 C214.9467,13.3114 215.4867,13.5644 215.3437,13.8004 C214.4197,15.8774 211.7837,22.0454 211.2597,23.8094 C211.1177,24.0444 210.4757,23.7554 210.5677,23.5014 C212.1447,19.3044 210.1817,14.5734 206.2717,13.1574 L205.6117,12.9184 C203.5797,12.1834 203.2907,12.8244 202.3757,15.1934 L193.9497,38.6214 C192.8837,41.5664 193.2397,42.3274 197.4547,43.8534 C197.6577,43.9274 197.4367,44.5374 197.2337,44.4634 C195.2537,43.7464 192.8017,42.7434 189.7037,41.6224 C186.9107,40.6104 184.1827,39.7374 182.1517,39.0024 C181.9487,38.9284 182.1697,38.3194 182.3217,38.3744" id="Fill-19" fill="#231F20"></path>
            <path d="M218.9037,56.3945 C221.3667,58.4155 222.1197,58.2645 224.1067,55.8435 L239.9667,36.5135 C241.9197,34.1345 241.7877,33.1875 239.4917,31.3035 C239.3667,31.2015 239.6937,30.6315 239.9027,30.8015 C241.2807,31.9325 242.8887,33.4615 244.8507,35.0715 C246.9807,36.8185 248.7957,38.0985 250.1737,39.2295 C250.2987,39.3325 249.8867,39.8335 249.7617,39.7305 C247.2577,37.6755 246.4847,38.0195 244.4907,40.3655 L228.6987,59.6115 C226.7127,62.0325 226.8367,62.9025 229.1747,64.8215 C229.2997,64.9245 228.8877,65.4255 228.7627,65.3225 C227.3847,64.1915 225.7417,62.7045 223.6967,61.0255 C221.7337,59.4155 219.9127,58.0605 218.4927,56.8955 C218.3677,56.7925 218.7787,56.2915 218.9037,56.3945" id="Fill-21" fill="#231F20"></path>
            <path d="M287.6762,90.4374 C286.5212,88.4864 284.8892,87.0054 279.5132,87.9954 L250.8272,93.0704301 C250.3922,93.0774 249.7972,91.8614 249.9742,91.6304 L268.2482,65.1734 C270.0302,62.6734 270.3902,61.2684 269.3442,59.5034 C269.2342,59.3174 269.7912,58.9874 269.8732,59.1264 C270.7812,60.6594 271.7432,62.5994 272.6522,64.1324 C274.3042,66.9194 275.5442,68.6944 276.5072,70.3204 C276.6722,70.5994 276.1152,70.9294 275.9502,70.6504 C274.7382,68.6064 273.4192,67.7574 271.7952,70.1004 L257.7872,90.2014 L278.6902,86.2864 C282.4432,85.6314 283.1622,82.8194 281.4282,79.8944 C281.2902,79.6614 281.8482,79.3314 281.9862,79.5644 C283.0862,81.4224 283.7732,82.8984 285.4522,85.7314 C286.5532,87.5894 287.2152,88.3894 288.2342,90.1064 C288.3992,90.3854 287.8422,90.7164 287.6762,90.4374" id="Fill-23" fill="#231F20"></path>
            <path d="M275.39,147.35 C273.259,147.314 270.127,147.524 267.72,147.853 C267.131,147.933 266.896,147.802 266.808,147.16 L263.475,122.765 C263.438,122.498 264.08,122.41 264.11,122.624 C264.54,125.78 265.18,126.075 268.284,125.65 L293.052,122.267 C296.102,121.85 296.663,121.174 296.261,118.231 C296.225,117.964 296.867,117.876 296.889,118.037 L300.039,141.094 C300.082,141.415 299.937,141.544 299.616,141.588 C297.536,141.926 294.227,142.433 292.569,142.66 C292.355,142.689 292.275,142.1 292.428,142.025 C296.226,140.307 298.272,136.539 297.68,132.206 L297.541,131.19 C297.095,127.927 296.532,127.786 293.788,128.052 L282.875,129.542 L283.788,136.23 C284.271,139.761 285.635,141.372 288.578,140.971 C288.899,140.927 289.001,141.676 288.626,141.73 C286.327,142.044 285.295,142.076 283.851,142.273 C282.032,142.522 280.442,142.848 278.409,143.123 C278.035,143.174 278.039,142.411 278.306,142.374 C281.41,141.95 282.737,139.698 282.276,136.328 L281.377,129.747 L269.286,131.399 C266.452,131.787 265.951,132.509 266.338,135.344 L266.542,136.842 C267.178,141.496 270.63,145.221 275.402,146.64 C275.63,146.718 275.557,147.381 275.39,147.35" id="Fill-25" fill="#231F20"></path>
            <path d="M18.7846,210.2846 L27.5866,206.6126 L18.7846,202.9946 L18.7846,210.2846 Z M1.3426,226.2146 C1.3426,224.1076 1.5576,222.1096 1.5576,219.5716 C1.5576,217.0886 1.3426,215.3056 1.3426,213.2546 C1.3426,212.9836 1.9906,212.9836 1.9906,213.2546 C1.9906,216.2236 2.8546,216.9266 5.8786,215.6306 L17.2726,210.8786 L17.2726,202.3466 L8.3086,198.6746 C3.8266,196.7846 1.9906,198.0266 1.9906,202.8866 C1.9906,203.2106 1.3426,203.2106 1.3426,202.8326 C1.3426,200.9966 1.5576,198.1346 1.5576,195.6506 C1.5576,193.2746 1.3426,192.1396 1.3426,190.1416 C1.3426,189.8716 1.9906,189.8186 1.9906,190.1416 C1.9906,192.1396 4.2036,195.0026 8.6866,197.0006 L35.5786,208.3946 C35.8486,208.4486 35.7406,209.2586 35.5246,209.4746 L5.8786,221.5696 C2.9086,222.8666 1.9906,223.0826 1.9906,226.2146 C1.9906,226.4306 1.3426,226.4306 1.3426,226.2146 L1.3426,226.2146 Z" id="Fill-27" fill="#231F20"></path>
            <path d="M18.2446,243.6176 C29.3686,243.6176 35.6866,252.6896 35.6866,262.6256 C35.6866,265.9736 34.9846,270.0236 34.1206,272.1836 C33.7966,272.7236 33.6346,272.8866 32.8786,272.8866 L25.6426,273.2636 C25.4266,273.2636 25.4266,272.8316 25.6426,272.6696 C30.9886,270.0776 34.2286,265.8656 34.2286,260.5196 C34.2286,253.6076 28.9366,249.9346 20.0266,249.9346 C10.1986,249.9346 1.7746,255.4976 1.7746,262.6796 C1.7746,266.3516 4.3666,269.7536 9.9826,273.0476 C10.2526,273.2096 10.1986,273.6416 9.8206,273.6416 L3.6106,273.3176 C2.7456,273.2096 2.5846,273.2096 2.3686,272.5086 C1.1266,268.9976 0.6946,265.4336 0.6946,262.5716 C0.6946,248.4236 10.1986,243.6176 18.2446,243.6176" id="Fill-29" fill="#231F20"></path>
            <g id="Group-33" transform="translate(0.000000, 295.660000)">
                <mask id="mask-2" fill="white">
                    <use xlink:href="#path-1"></use>
                </mask>
                <g id="Clip-32"></g>
                <path d="M9.7372,24.5015 C11.5812,30.2045 17.6752,32.3765 25.4332,29.8675 C34.8352,26.8265 41.8892,18.9825 39.4292,11.3795 C37.5852,5.6775 31.5262,3.4375 23.7172,5.9625 C14.5212,8.9375 7.2442,16.7955 9.7372,24.5015 M13.0412,69.4585 C9.7892,68.3535 7.4852,66.3175 6.1892,62.3105 C2.7992,51.8295 4.4462,33.7615 1.5712,24.8725 C1.2562,23.8975 0.7722,22.5775 0.0632,21.6145 C-0.2078,21.4765 0.4662,20.5765 0.6512,20.8005 L10.3692,28.2135 C9.2582,26.5295 8.3352,24.7285 7.7032,22.7755 C4.4462,12.7065 9.8192,3.8745 19.0832,0.9355 C28.6552,-2.1035 38.0372,2.8635 41.2612,12.8305 C44.5842,23.1055 39.4322,32.0925 30.0832,34.9455 C24.1072,36.8225 18.5862,35.5435 14.3962,32.4155 L4.7592,25.4305 C5.2822,26.1695 5.7362,27.0445 6.1012,28.1745 C9.0422,37.2685 6.4342,52.0165 10.4892,64.5515 C11.3362,67.1715 12.1312,68.0495 13.3702,68.8975 C13.5912,69.0535 13.3132,69.5975 13.0412,69.4585" id="Fill-31" fill="#231F20" mask="url(#mask-2)"></path>
            </g>
            <path d="M56.1957,389.9135 C54.9567,388.6325 53.9447,387.5085 52.5557,386.0715 C51.5047,384.9845 50.6027,384.1295 49.6647,383.1615 C49.1387,382.6175 49.1417,382.4655 49.8007,381.8265 L51.5087,380.1755 C47.0117,379.6425 43.8687,378.1005 41.0157,375.1485 C35.6857,369.6375 34.6947,362.7085 39.4297,358.1295 L53.3267,344.6905 C55.5397,342.5515 55.5547,341.6355 53.4907,339.5005 C53.3407,339.3455 53.8057,338.8935 53.9567,339.0495 C55.1577,340.2915 56.5797,341.9955 58.3437,343.8195 C60.0327,345.5665 61.8767,347.2395 63.0407,348.4435 C63.2277,348.6385 62.7617,349.0885 62.6497,348.9725 C60.3977,346.6425 59.5537,346.8575 57.3037,348.9585 L44.8427,361.0075 C39.9537,365.5845 39.6747,370.8885 43.8787,375.2355 C45.9807,377.4095 48.5187,378.6365 52.6347,379.0865 L70.0657,362.1565 C72.3157,360.0565 72.4087,359.0645 70.3447,356.9295 C70.1947,356.7735 70.6597,356.3235 70.7727,356.4385 C72.0107,357.7195 73.4717,359.4625 75.2357,361.2865 C76.8867,362.9945 78.7307,364.6675 79.8947,365.8735 C80.0817,366.0665 79.6157,366.5175 79.5037,366.4005 C77.2887,364.1105 76.4477,364.1735 74.2347,366.3125 L56.2617,383.6915 C54.0107,385.8695 54.0337,386.7485 56.6617,389.4655 C56.8117,389.6205 56.3457,390.0705 56.1957,389.9135" id="Fill-34" fill="#231F20"></path>
            <path d="M82.6132,405.102 C85.5102,406.427 86.1992,406.089 87.5022,403.241 L97.9012,380.506 C99.1812,377.707 98.8122,376.827 96.1122,375.591 C95.9652,375.524 96.1362,374.889 96.3812,374.998 C98.0022,375.74 99.9472,376.808 102.2562,377.864 C104.7592,379.009 106.8402,379.783 108.4612,380.527 C108.6082,380.594 108.3392,381.184 108.1912,381.117 C105.2452,379.769 104.5872,380.299 103.2582,383.076 L92.9032,405.711 C91.6002,408.56 91.9422,409.37 94.6922,410.627 C94.8402,410.695 94.5702,411.284 94.4232,411.216 C92.8022,410.475 90.8342,409.456 88.4282,408.355 C86.1202,407.299 84.0132,406.455 82.3432,405.691 C82.1962,405.623 82.4662,405.035 82.6132,405.102" id="Fill-36" fill="#231F20"></path>
            <g id="Group-40" transform="translate(124.000000, 386.660000)">
                <mask id="mask-4" fill="white">
                    <use xlink:href="#path-3"></use>
                </mask>
                <g id="Clip-39"></g>
                <path d="M21.9072,26.2681 C21.2272,32.4961 15.9982,35.6191 9.3952,34.8981 C6.1742,34.5461 1.9432,32.9981 0.8262,31.7891 C0.5272,31.5391 0.4372,31.3671 0.4542,30.7161 L1.1712,22.1581 C1.1532,21.8311 1.7492,21.8411 1.8272,22.1221 C3.5352,26.8711 5.8382,33.1511 10.9372,33.7071 C13.4072,33.9771 15.7782,33.1501 16.2232,29.0701 C17.3482,18.7631 2.0672,16.9321 3.0632,7.8071 C3.7252,1.7411 9.8642,-0.2509 15.3392,0.3471 C17.9162,0.6281 20.9172,1.4991 22.3502,2.3071 C22.9532,2.7531 23.0852,3.0391 23.0382,3.4691 L22.1772,11.3601 C22.1532,11.5751 21.6522,11.6831 21.5152,11.4511 C20.9032,9.5911 19.4512,1.9911 13.7612,1.3701 C10.8622,1.0531 8.6172,2.7091 8.3302,5.3401 C7.3922,13.9291 22.9622,16.6061 21.9072,26.2681" id="Fill-38" fill="#231F20" mask="url(#mask-4)"></path>
            </g>
            <path d="M174.0693,419.3715 C177.1873,418.7145 177.5403,418.0325 176.8943,414.9685 L171.7363,390.5025 C171.1023,387.4905 170.2813,387.0015 167.3753,387.6135 C167.2163,387.6465 166.9773,387.0355 167.2413,386.9805 C168.9853,386.6135 171.1853,386.3145 173.6683,385.7915 C176.3633,385.2235 178.4963,384.6075 180.2403,384.2395 C180.3993,384.2065 180.5323,384.8405 180.3743,384.8735 C177.2033,385.5425 176.9893,386.3595 177.5713,389.3835 L182.7063,413.7425 C183.3523,416.8075 184.1093,417.2555 187.0683,416.6315 C187.2273,416.5985 187.3613,417.2315 187.2023,417.2655 C185.4583,417.6335 183.2693,417.9835 180.6803,418.5295 C178.1963,419.0535 176.0003,419.6265 174.2033,420.0055 C174.0453,420.0385 173.9113,419.4045 174.0693,419.3715" id="Fill-41" fill="#231F20"></path>
            <path d="M220.059,403.7485 C223.749,401.5015 224.132,400.5725 222.502,397.8965 L209.496,376.5405 C208.222,374.3445 207.359,374.1735 205.699,375.1855 L205.099,375.5505 C201.87,377.5175 200.636,382.7585 202.516,386.9875 C202.582,387.2005 201.927,387.4735 201.907,387.2325 C201.098,385.3855 198.247,379.9775 197.008,377.6325 C196.896,377.4475 197.524,377.1285 197.636,377.3125 C198.198,378.2355 199.563,377.4675 200.302,377.0165 C202.849,375.5915 206.475,373.4465 209.75,371.4515 C213.763,369.0085 216.262,367.2965 218.569,365.8935 C220.459,364.7415 221.316,363.9675 220.956,362.8575 C220.936,362.6175 221.472,362.3535 221.566,362.6125 C222.608,364.6355 225.768,370.5515 226.816,372.0625 C226.91,372.3215 226.282,372.6415 226.142,372.4105 C223.856,368.5545 218.938,367.1225 215.386,369.2855 L214.787,369.6505 C212.941,370.7745 213.26,371.4025 214.535,373.5985 L227.531,394.8355 C229.16,397.5105 229.976,397.7085 233.805,395.3775 C233.99,395.2655 234.327,395.8185 234.142,395.9315 C232.343,397.0265 230.027,398.3115 227.212,400.0235 C224.676,401.5685 222.288,403.1495 220.442,404.2735 C220.257,404.3865 219.92,403.8325 220.059,403.7485" id="Fill-43" fill="#231F20"></path>
            <path d="M259.9965,372.3022 C262.0225,369.8442 261.8735,369.0912 259.4565,367.0992 L240.1625,351.1962 C237.7875,349.2382 236.8405,349.3672 234.9515,351.6592 C234.8495,351.7842 234.2795,351.4552 234.4515,351.2472 C235.5855,349.8712 237.1185,348.2662 238.7325,346.3072 C240.4845,344.1822 241.7675,342.3692 242.9005,340.9962 C243.0045,340.8712 243.5045,341.2832 243.4005,341.4082 C241.3405,343.9082 241.6835,344.6812 244.0235,346.6812 L263.2345,362.5152 C265.6515,364.5072 266.5215,364.3852 268.4455,362.0512 C268.5495,361.9262 269.0495,362.3382 268.9455,362.4612 C267.8115,363.8372 266.3205,365.4772 264.6385,367.5192 C263.0235,369.4782 261.6645,371.2972 260.4965,372.7142 C260.3925,372.8392 259.8925,372.4272 259.9965,372.3022" id="Fill-45" fill="#231F20"></path>
            <path d="M281.3793,304.7406 C272.0053,301.6076 261.6703,303.7346 259.1363,311.3156 C257.2353,317.0016 260.7843,322.4006 268.5703,325.0036 C277.7393,328.0676 288.2623,326.0606 290.8293,318.3776 C292.7303,312.6916 289.1133,307.3256 281.3793,304.7406 M269.3163,331.8016 C259.8063,328.5656 255.2023,318.9976 258.5243,309.0606 C261.9473,298.8156 271.4303,294.6386 280.6503,297.8906 C290.9633,301.4526 294.5243,311.7546 291.4423,320.9736 C288.0873,331.0136 278.5203,334.9336 269.3163,331.8016" id="Fill-47" fill="#231F20"></path>
            <path d="M265.5336,239.6752 C265.5336,242.6452 267.6936,244.6432 271.1496,244.6972 L299.0136,244.7512 C299.3916,244.6972 299.6626,246.1012 299.1226,246.3712 L270.7186,268.9972 L292.3726,269.0512 C295.8826,269.1062 297.9886,267.1612 297.9886,264.1372 C297.9886,263.8672 298.6366,263.8672 298.6366,264.1372 C298.6366,265.7572 298.5286,267.4862 298.5286,269.8622 C298.5286,271.9672 298.6366,274.0202 298.6366,275.6942 C298.6366,275.9632 297.9886,275.9632 297.9886,275.6942 C297.9886,272.7242 295.8826,270.7792 292.3726,270.7262 L268.6656,270.6712 C266.2356,272.8312 265.5336,274.3442 265.5336,275.9632 C265.5336,276.1252 264.8866,276.1252 264.8866,275.9632 C264.8866,274.2892 264.9936,272.0752 264.9936,270.7262 C264.9936,269.4302 264.8866,267.3232 264.8866,266.9462 C264.8866,265.9742 265.6416,266.0812 267.6936,264.4072 L290.1586,246.4252 L271.1496,246.3172 C267.6936,246.2632 265.5336,248.1542 265.5336,251.2312 C265.5336,251.5012 264.8866,251.5012 264.8866,251.2322 C264.8866,249.8272 265.0486,247.8832 265.0486,245.5072 C265.0486,243.4012 264.8866,241.4032 264.8866,239.6752 C264.8866,239.4592 265.5336,239.4592 265.5336,239.6752" id="Fill-49" fill="#231F20"></path>
            <path d="M289.3481,197.2866 C295.6131,197.2866 299.2851,202.1466 299.2851,208.7886 C299.2851,212.0286 298.2041,216.4026 297.1241,217.6436 C296.9091,217.9686 296.7461,218.0766 296.0981,218.1306 L287.5121,218.3466 C287.1881,218.4006 287.1341,217.8066 287.4051,217.6986 C291.9401,215.4846 297.9341,212.5146 297.9341,207.3846 C297.9341,204.9006 296.8541,202.6326 292.7501,202.6326 C282.3821,202.6326 282.2201,218.0216 273.0401,218.0216 C266.9381,218.0216 264.2911,212.1366 264.2911,206.6286 C264.2911,204.0366 264.8311,200.9586 265.4801,199.4466 C265.8581,198.7986 266.1281,198.6366 266.5601,198.6366 L274.4981,198.6366 C274.7141,198.6366 274.8761,199.1226 274.6601,199.2846 C272.8781,200.0946 265.4801,202.3626 265.4801,208.0866 C265.4801,211.0026 267.3691,213.0546 270.0161,213.0546 C278.6561,213.0546 279.6281,197.2866 289.3481,197.2866" id="Fill-51" fill="#231F20"></path>
            <g id="Group-55" transform="translate(143.000000, 0.660000)">
                <mask id="mask-6" fill="white">
                    <use xlink:href="#path-5"></use>
                </mask>
                <g id="Clip-54"></g>
                <path d="M0.3276,33.4425 C3.5136,33.4425 3.9996,32.8485 3.9996,29.7165 L3.9996,4.7135 C3.9996,1.6355 3.2976,0.9875 0.3276,0.9875 C0.1656,0.9875 0.0576,0.3395 0.3276,0.3395 C2.1096,0.3395 4.3236,0.5025 6.8616,0.5025 C9.6156,0.5025 11.8296,0.3395 13.6116,0.3395 C13.7736,0.3395 13.7736,0.9875 13.6116,0.9875 C10.3716,0.9875 9.9936,1.7435 9.9396,4.8215 L9.9396,29.7165 C9.9396,32.8485 10.5886,33.4425 13.6116,33.4425 C13.7736,33.4425 13.7736,34.0905 13.6116,34.0905 C11.8296,34.0905 9.6156,33.9825 6.9706,33.9825 C4.4316,33.9825 2.1636,34.0905 0.3276,34.0905 C0.1656,34.0905 0.1656,33.4425 0.3276,33.4425" id="Fill-53" fill="#231F20" mask="url(#mask-6)"></path>
            </g>
        </g>
    </g>
</svg>